<svg width="48" height="49" viewBox="0 0 48 49" fill="none" xmlns="http://www.w3.org/2000/svg">
<path d="M0.5 8.29764C0.5 4.1555 3.85786 0.797638 8 0.797638H40C44.1421 0.797638 47.5 4.1555 47.5 8.29764V40.2976C47.5 44.4398 44.1421 47.7976 40 47.7976H8C3.85787 47.7976 0.5 44.4398 0.5 40.2976V8.29764Z" stroke="#666C89"/>
<path fill-rule="evenodd" clip-rule="evenodd" d="M29.9444 22.691V19.4643C29.9444 17.7154 28.5267 16.2976 26.7778 16.2976H15.1667C13.4178 16.2976 12 17.7154 12 19.4643V30.0199C12 31.7688 13.4178 33.1865 15.1667 33.1865H26.7778C28.5267 33.1865 29.9444 31.7688 29.9444 30.0199V26.7933L35.6642 30.8789C35.986 31.1087 36.4092 31.1395 36.7608 30.9585C37.1124 30.7776 37.3333 30.4154 37.3333 30.02V19.4644C37.3333 19.069 37.1124 18.7068 36.7608 18.5258C36.4092 18.3449 35.986 18.3757 35.6642 18.6055L29.9444 22.691ZM14.1111 19.4643C14.1111 18.8813 14.5837 18.4087 15.1667 18.4087H26.7778C27.3607 18.4087 27.8333 18.8813 27.8333 19.4643V30.0199C27.8333 30.6028 27.3607 31.0754 26.7778 31.0754H15.1667C14.5837 31.0754 14.1111 30.6028 14.1111 30.0199V19.4643ZM35.2222 27.9688L30.7049 24.7422L35.2222 21.5156V27.9688Z" fill="#90A3BF"/>
</svg>
