<svg width="20" height="16" viewBox="0 0 20 16" fill="none" xmlns="http://www.w3.org/2000/svg">
<path d="M2.54815 15.5C2.04302 15.5 1.61545 15.325 1.26545 14.975C0.91547 14.625 0.740479 14.1974 0.740479 13.6923V2.30772C0.740479 1.80259 0.91547 1.37502 1.26545 1.02502C1.61545 0.675023 2.04302 0.500023 2.54815 0.500023H13.9327C14.4378 0.500023 14.8654 0.675023 15.2154 1.02502C15.5654 1.37502 15.7404 1.80259 15.7404 2.30772V6.88465L19.2596 3.36545V12.6345L15.7404 9.11535V13.6923C15.7404 14.1974 15.5654 14.625 15.2154 14.975C14.8654 15.325 14.4378 15.5 13.9327 15.5H2.54815ZM2.54815 14H13.9327C14.0225 14 14.0962 13.9711 14.1539 13.9134C14.2116 13.8557 14.2404 13.782 14.2404 13.6923V2.30772C14.2404 2.21797 14.2116 2.14425 14.1539 2.08655C14.0962 2.02885 14.0225 2 13.9327 2H2.54815C2.4584 2 2.38468 2.02885 2.32698 2.08655C2.26928 2.14425 2.24043 2.21797 2.24043 2.30772V13.6923C2.24043 13.782 2.26928 13.8557 2.32698 13.9134C2.38468 13.9711 2.4584 14 2.54815 14Z" fill="white"/>
</svg>
