<svg width="48" height="49" viewBox="0 0 48 49" fill="none" xmlns="http://www.w3.org/2000/svg">
<path d="M0.5 8.29764C0.5 4.1555 3.85786 0.797638 8 0.797638H40C44.1421 0.797638 47.5 4.1555 47.5 8.29764V40.2976C47.5 44.4398 44.1421 47.7976 40 47.7976H8C3.85787 47.7976 0.5 44.4398 0.5 40.2976V8.29764Z" stroke="#666C89"/>
<path fill-rule="evenodd" clip-rule="evenodd" d="M20.4127 12.266C21.2462 11.4325 22.3766 10.9643 23.5554 10.9643C24.7341 10.9643 25.8646 11.4325 26.6981 12.266C27.5316 13.0995 27.9998 14.23 27.9998 15.4087V24.2976C27.9998 25.4764 27.5316 26.6068 26.6981 27.4403C25.8646 28.2738 24.7341 28.7421 23.5554 28.7421C22.3766 28.7421 21.2462 28.2738 20.4127 27.4403C19.5792 26.6068 19.1109 25.4764 19.1109 24.2976V15.4087C19.1109 14.23 19.5792 13.0995 20.4127 12.266ZM23.5554 13.1865C22.966 13.1865 22.4008 13.4206 21.984 13.8374C21.5673 14.2541 21.3332 14.8194 21.3332 15.4087V24.2976C21.3332 24.887 21.5673 25.4522 21.984 25.869C22.4008 26.2857 22.966 26.5198 23.5554 26.5198C24.1447 26.5198 24.71 26.2857 25.1267 25.869C25.5435 25.4522 25.7776 24.887 25.7776 24.2976V15.4087C25.7776 14.8194 25.5435 14.2541 25.1267 13.8374C24.71 13.4206 24.1447 13.1865 23.5554 13.1865Z" fill="#90A3BF"/>
<path fill-rule="evenodd" clip-rule="evenodd" d="M15.7776 20.9643C16.3913 20.9643 16.8887 21.4618 16.8887 22.0754V24.2976C16.8887 26.0657 17.5911 27.7614 18.8413 29.0117C20.0916 30.2619 21.7873 30.9643 23.5554 30.9643C25.3235 30.9643 27.0192 30.2619 28.2694 29.0117C29.5197 27.7614 30.2221 26.0657 30.2221 24.2976V22.0754C30.2221 21.4618 30.7195 20.9643 31.3332 20.9643C31.9468 20.9643 32.4443 21.4618 32.4443 22.0754V24.2976C32.4443 26.6551 31.5078 28.916 29.8408 30.583C28.1738 32.25 25.9129 33.1865 23.5554 33.1865C21.1979 33.1865 18.937 32.25 17.27 30.583C15.603 28.916 14.6665 26.6551 14.6665 24.2976V22.0754C14.6665 21.4618 15.164 20.9643 15.7776 20.9643Z" fill="#90A3BF"/>
<path fill-rule="evenodd" clip-rule="evenodd" d="M23.5554 30.9643C24.169 30.9643 24.6665 31.4618 24.6665 32.0754V36.5198C24.6665 37.1335 24.169 37.631 23.5554 37.631C22.9417 37.631 22.4443 37.1335 22.4443 36.5198V32.0754C22.4443 31.4618 22.9417 30.9643 23.5554 30.9643Z" fill="#90A3BF"/>
<path fill-rule="evenodd" clip-rule="evenodd" d="M17.9998 36.5198C17.9998 35.9061 18.4973 35.4087 19.1109 35.4087H27.9998C28.6135 35.4087 29.1109 35.9061 29.1109 36.5198C29.1109 37.1334 28.6135 37.6309 27.9998 37.6309H19.1109C18.4973 37.6309 17.9998 37.1334 17.9998 36.5198Z" fill="#90A3BF"/>
</svg>
