<svg width="64" height="64" viewBox="0 0 64 64" fill="none" xmlns="http://www.w3.org/2000/svg">
<path d="M30.6667 44H33.3333V29.3333H30.6667V44ZM32 25.5385C32.465 25.5385 32.8547 25.3812 33.1693 25.0667C33.4838 24.7521 33.641 24.3624 33.641 23.8974C33.641 23.4325 33.4838 23.0427 33.1693 22.7282C32.8547 22.4137 32.465 22.2564 32 22.2564C31.535 22.2564 31.1453 22.4137 30.8307 22.7282C30.5162 23.0427 30.359 23.4325 30.359 23.8974C30.359 24.3624 30.5162 24.7521 30.8307 25.0667C31.1453 25.3812 31.535 25.5385 32 25.5385ZM32.0089 56C28.6901 56 25.5699 55.3702 22.6483 54.1107C19.7266 52.8512 17.1852 51.1418 15.0239 48.9826C12.8627 46.8234 11.1518 44.2844 9.89107 41.3655C8.63036 38.4465 8 35.3277 8 32.0089C8 28.6901 8.62976 25.5699 9.88927 22.6483C11.1488 19.7266 12.8582 17.1852 15.0174 15.0239C17.1766 12.8627 19.7156 11.1518 22.6345 9.89107C25.5535 8.63036 28.6723 8 31.9911 8C35.3099 8 38.4301 8.62975 41.3517 9.88927C44.2734 11.1488 46.8148 12.8582 48.9761 15.0174C51.1373 17.1766 52.8482 19.7156 54.1089 22.6345C55.3696 25.5535 56 28.6723 56 31.9911C56 35.3099 55.3702 38.4301 54.1107 41.3517C52.8512 44.2734 51.1418 46.8148 48.9826 48.9761C46.8234 51.1373 44.2844 52.8482 41.3655 54.1089C38.4465 55.3696 35.3277 56 32.0089 56ZM32 53.3333C37.9556 53.3333 43 51.2667 47.1333 47.1333C51.2667 43 53.3333 37.9556 53.3333 32C53.3333 26.0444 51.2667 21 47.1333 16.8667C43 12.7333 37.9556 10.6667 32 10.6667C26.0444 10.6667 21 12.7333 16.8667 16.8667C12.7333 21 10.6667 26.0444 10.6667 32C10.6667 37.9556 12.7333 43 16.8667 47.1333C21 51.2667 26.0444 53.3333 32 53.3333Z" fill="#FDB649"/>
</svg>
