<svg width="52" height="52" viewBox="0 0 52 52" fill="none" xmlns="http://www.w3.org/2000/svg">
<path d="M22.0667 37.2358L40.0358 19.2667L37.7128 16.9847L22.0667 32.6565L14.1693 24.759L11.9129 27.041L22.0667 37.2358ZM26.0045 51.3333C22.528 51.3333 19.2525 50.6684 16.178 49.3386C13.1035 48.0088 10.4149 46.1931 8.11208 43.8913C5.80924 41.5895 3.99264 38.902 2.66228 35.8289C1.33193 32.7557 0.666748 29.4809 0.666748 26.0045C0.666748 22.5007 1.33164 19.2072 2.66142 16.1242C3.99119 13.0411 5.80697 10.3593 8.10875 8.07875C10.4106 5.79813 13.098 3.99264 16.1711 2.66228C19.2443 1.33193 22.5191 0.666748 25.9956 0.666748C29.4994 0.666748 32.7928 1.33164 35.8758 2.66141C38.9589 3.99119 41.6407 5.79586 43.9213 8.07542C46.2019 10.355 48.0074 13.0357 49.3377 16.1173C50.6681 19.199 51.3333 22.4917 51.3333 25.9955C51.3333 29.472 50.6684 32.7475 49.3386 35.822C48.0088 38.8965 46.2042 41.5851 43.9246 43.888C41.645 46.1908 38.9644 48.0074 35.8827 49.3377C32.801 50.6681 29.5083 51.3333 26.0045 51.3333ZM26 48.3077C32.2085 48.3077 37.4786 46.135 41.8103 41.7897C46.1419 37.4445 48.3077 32.1812 48.3077 26C48.3077 19.7915 46.1419 14.5214 41.8103 10.1897C37.4786 5.85815 32.2085 3.69235 26 3.69235C19.8188 3.69235 14.5556 5.85815 10.2103 10.1897C5.86499 14.5214 3.69235 19.7915 3.69235 26C3.69235 32.1812 5.86499 37.4445 10.2103 41.7897C14.5556 46.135 19.8188 48.3077 26 48.3077Z" fill="#00FEFE"/>
</svg>
