<svg width="48" height="49" viewBox="0 0 48 49" fill="none" xmlns="http://www.w3.org/2000/svg">
<path d="M0.5 8.29764C0.5 4.1555 3.85786 0.797638 8 0.797638H40C44.1421 0.797638 47.5 4.1555 47.5 8.29764V40.2976C47.5 44.4398 44.1421 47.7976 40 47.7976H8C3.85787 47.7976 0.5 44.4398 0.5 40.2976V8.29764Z" stroke="#666C89"/>
<path fill-rule="evenodd" clip-rule="evenodd" d="M19.9057 24.2977C19.9057 26.7086 21.8584 28.6613 24.2693 28.6613C26.6693 28.6613 28.6329 26.7086 28.6329 24.2977C28.6329 21.8868 26.6802 19.934 24.2693 19.934C21.8584 19.934 19.9057 21.8868 19.9057 24.2977ZM22.0875 24.2977C22.0875 23.0977 23.0693 22.1158 24.2693 22.1158C25.4693 22.1158 26.4511 23.0977 26.4511 24.2977C26.4511 25.4977 25.4693 26.4795 24.2693 26.4795C23.0693 26.4795 22.0875 25.4977 22.0875 24.2977Z" fill="#90A3BF"/>
<path fill-rule="evenodd" clip-rule="evenodd" d="M24.0293 36.2976H24.5093C25.382 36.2976 26.2002 35.9595 26.8329 35.3376C27.4547 34.7158 27.7929 33.8976 27.7929 33.0249V32.8176C27.7929 32.6213 27.8365 32.4358 27.9347 32.2722C28.0329 32.1085 28.1638 31.9667 28.3383 31.8685L28.8074 31.5958C29.1456 31.4104 29.5383 31.3885 29.9311 31.6176L30.062 31.6831C30.8038 32.1085 31.7093 32.2285 32.5383 32.0104C33.3893 31.7922 34.0874 31.2467 34.5347 30.4831L34.7638 30.0685C35.2002 29.3158 35.3202 28.4322 35.0911 27.5922C34.862 26.7522 34.3165 26.0431 33.5311 25.5849L33.4002 25.5195C33.2256 25.4213 33.0947 25.2795 32.9965 25.1158C32.9093 24.9413 32.8547 24.7558 32.8547 24.5595V24.014C32.8438 23.8285 32.8983 23.6322 32.9965 23.4685C33.0947 23.3049 33.2256 23.174 33.4111 23.0649L33.5747 22.9558C34.3274 22.5195 34.862 21.8104 35.0911 20.9704C35.3202 20.1304 35.2002 19.2467 34.7638 18.494L34.5238 18.0795C34.0874 17.3267 33.3783 16.7922 32.5383 16.5631C31.6983 16.334 30.8038 16.454 30.0838 16.8685L29.8874 16.9776C29.5493 17.1631 29.1238 17.1631 28.7965 16.9776L28.3274 16.7049C28.1529 16.6176 28.022 16.4758 27.9238 16.3122C27.8365 16.1485 27.782 15.9522 27.782 15.7667V15.5704C27.782 14.6976 27.4438 13.8795 26.822 13.2576C26.2002 12.6358 25.382 12.2976 24.5093 12.2976H24.0293C23.1565 12.2976 22.3274 12.6358 21.7165 13.2576C21.0947 13.8795 20.7565 14.6976 20.7565 15.5704V15.7667C20.7565 15.9522 20.702 16.1485 20.6147 16.3122C20.5165 16.4758 20.3747 16.6176 20.2111 16.7158L19.742 16.9776C19.4038 17.174 19.0111 17.1958 18.6074 16.9667L18.4765 16.9013C17.7238 16.4649 16.8402 16.3449 16.0002 16.574C15.1711 16.7922 14.4402 17.3485 14.0147 18.0904L13.7747 18.5049C13.3383 19.2576 13.2293 20.1413 13.4474 20.9813C13.6765 21.8322 14.2111 22.5304 14.9202 22.9449L15.1383 23.0867C15.302 23.174 15.4438 23.3158 15.5202 23.4685C15.6074 23.6322 15.662 23.8176 15.662 24.0031V24.5704C15.662 24.7558 15.6183 24.9522 15.5202 25.1158C15.422 25.2904 15.2911 25.4213 15.1056 25.5304L14.9638 25.6176C14.2111 26.054 13.6765 26.7631 13.4474 27.6031C13.2183 28.454 13.3383 29.3267 13.7747 30.0904L14.0256 30.494C14.4511 31.2467 15.182 31.7922 16.0111 32.0213C16.8511 32.2504 17.7347 32.1304 18.4547 31.7158L18.6511 31.6067C18.9893 31.4213 19.4147 31.4213 19.742 31.6067L20.2111 31.8795C20.3856 31.9776 20.5165 32.1195 20.6147 32.2831C20.702 32.4467 20.7565 32.6431 20.7565 32.8285V33.0249C20.7565 33.8976 21.0947 34.7158 21.7165 35.3376C22.3383 35.9595 23.1565 36.2976 24.0293 36.2976ZM20.8329 29.7195C20.3311 29.4358 19.7747 29.2831 19.1965 29.2831C18.6183 29.2831 18.0511 29.4358 17.6038 29.7085L17.4074 29.8176C17.1565 29.9595 16.862 30.0031 16.5783 29.9267C16.2947 29.8504 16.0547 29.6649 15.9129 29.414L15.6729 28.9995C15.5311 28.7485 15.4874 28.454 15.5638 28.1704C15.6402 27.8867 15.8147 27.6467 16.0874 27.494L16.2293 27.4067C16.7311 27.1231 17.1456 26.7085 17.4293 26.2067C17.7238 25.7049 17.8656 25.1376 17.8656 24.5704V24.0031C17.8656 23.4358 17.702 22.8795 17.4183 22.3776C17.1347 21.8758 16.7202 21.4722 16.2838 21.2213L16.0656 21.0795C15.8147 20.9376 15.6293 20.7085 15.5529 20.4249C15.4874 20.1413 15.5202 19.8467 15.662 19.5958L15.9129 19.1813C16.0547 18.9304 16.2947 18.7449 16.5674 18.6795C16.8511 18.6031 17.1456 18.6358 17.4293 18.7995L17.5602 18.8649C18.542 19.4431 19.8293 19.4431 20.8329 18.8649L21.302 18.6031C21.8038 18.3085 22.2183 17.894 22.502 17.4031C22.7856 16.9013 22.9383 16.3449 22.9383 15.7667V15.5704C22.9383 15.2867 23.0583 15.0031 23.2547 14.7958C23.462 14.5995 23.7456 14.4795 24.0293 14.4795H24.5093C24.7929 14.4795 25.0765 14.5995 25.2838 14.7958C25.4802 15.0031 25.6002 15.2867 25.6002 15.5704V15.7776C25.6002 16.3449 25.7529 16.9122 26.0365 17.414C26.3202 17.9049 26.7347 18.3195 27.2256 18.6031L27.6947 18.8758C28.6874 19.454 30.0074 19.4431 30.9347 18.8976L31.1311 18.7885C31.382 18.6467 31.6874 18.6031 31.9602 18.6795C32.2438 18.7558 32.4838 18.9304 32.6256 19.1813L32.8656 19.5958C33.0074 19.8467 33.0511 20.1522 32.9747 20.4249C32.8983 20.6976 32.7238 20.9376 32.462 21.0904L32.3093 21.1776C31.8074 21.4613 31.3929 21.8758 31.1093 22.3776C30.8256 22.8685 30.6729 23.4467 30.6729 24.014V24.5595C30.6729 25.1267 30.8256 25.694 31.1093 26.1958C31.3929 26.6976 31.8074 27.1122 32.342 27.4176L32.4729 27.4831C32.7238 27.6249 32.9093 27.8758 32.9856 28.1485C33.0511 28.4322 33.0183 28.7267 32.8656 28.9885L32.6365 29.4031C32.4838 29.654 32.2547 29.8285 31.9711 29.9049C31.6874 29.9813 31.382 29.9485 31.1093 29.7849L30.9783 29.7195C29.9856 29.1413 28.6983 29.1413 27.7056 29.7195L27.2365 29.9922C26.7347 30.2867 26.3202 30.6904 26.0365 31.1922C25.7529 31.694 25.6002 32.2613 25.6002 32.8285V33.0249C25.6002 33.3195 25.4911 33.5922 25.2838 33.7995C25.0765 34.0067 24.8038 34.1158 24.5093 34.1158H24.0293C23.7347 34.1158 23.462 34.0067 23.2438 33.7995C23.0365 33.5922 22.9274 33.3195 22.9274 33.0249V32.8176C22.9274 32.2395 22.7747 31.6831 22.4911 31.1813C22.2074 30.6904 21.7929 30.2758 21.302 29.9922L20.8329 29.7195Z" fill="#90A3BF"/>
</svg>
