<svg width="62" height="48" viewBox="0 0 62 48" fill="none" xmlns="http://www.w3.org/2000/svg">
<path d="M61.6656 24C61.5944 56.0021 0.397325 55.9979 0.334473 24C0.405705 -8.00209 61.6027 -7.99791 61.6656 24Z" fill="#00FEFE"/>
<path d="M15.7878 10.2424C10.2442 10.2424 5.75238 14.7292 5.75238 20.2666C7.79298 49.7448 54.2198 49.7113 56.2436 20.2666C56.2436 14.7292 51.7518 10.2424 46.2082 10.2424H15.7878Z" fill="#1E1E1E"/>
<path d="M45.0056 28.1939H16.9945C13.0139 28.1939 9.78748 24.9711 9.78748 20.9949C9.78748 17.0187 13.0139 13.7959 16.9945 13.7959H45.0056C48.9863 13.7959 52.2127 17.0187 52.2127 20.9949C52.2127 24.9711 48.9863 28.1939 45.0056 28.1939Z" fill="#00FEFE"/>
<path d="M23.2418 23.5773H18.0377C16.4203 23.6066 16.789 21.4762 16.7639 20.4466C16.7639 19.7434 17.3337 19.1742 18.0377 19.1742H23.2418C24.8592 19.1449 24.4905 21.2753 24.5156 22.3049C24.5156 23.0081 23.9458 23.5773 23.2418 23.5773Z" fill="#1E1E1E"/>
<path d="M43.9578 23.5774H38.7579C37.1405 23.6067 37.5092 21.4763 37.4841 20.4466C37.4841 19.7435 38.0539 19.1742 38.7579 19.1742H43.9578C45.5752 19.145 45.2065 21.2754 45.2317 22.305C45.2317 23.0081 44.6618 23.5774 43.9578 23.5774Z" fill="#1E1E1E"/>
</svg>
