<svg width="1244" height="1219" viewBox="0 0 1244 1219" fill="none" xmlns="http://www.w3.org/2000/svg">
<g opacity="0.7">
<rect x="1244.79" y="0.715515" width="3.58127" height="1674.85" transform="rotate(48 1244.79 0.715515)" fill="#FDB649"/>
<rect x="1252.54" y="9.32208" width="3.58127" height="1674.85" transform="rotate(48 1252.54 9.32208)" fill="#FDB649"/>
<rect x="1260.29" y="17.9286" width="3.58127" height="1674.85" transform="rotate(48 1260.29 17.9286)" fill="#FDB649"/>
<rect x="1268.04" y="26.5352" width="3.58127" height="1674.85" transform="rotate(48 1268.04 26.5352)" fill="#FDB649"/>
<rect x="1275.79" y="35.1418" width="3.58127" height="1674.85" transform="rotate(48 1275.79 35.1418)" fill="#FDB649"/>
<rect x="1283.54" y="43.7483" width="3.58127" height="1674.85" transform="rotate(48 1283.54 43.7483)" fill="#FDB649"/>
<rect x="1291.29" y="52.3549" width="3.58127" height="1674.85" transform="rotate(48 1291.29 52.3549)" fill="#FDB649"/>
<rect x="1299.04" y="60.9615" width="3.58127" height="1674.85" transform="rotate(48 1299.04 60.9615)" fill="#FDB649"/>
<rect x="1306.79" y="69.568" width="3.58127" height="1674.85" transform="rotate(48 1306.79 69.568)" fill="#FDB649"/>
<rect x="1314.54" y="78.1746" width="3.58127" height="1674.85" transform="rotate(48 1314.54 78.1746)" fill="#FDB649"/>
<rect x="1322.28" y="86.7811" width="3.58127" height="1674.85" transform="rotate(48 1322.28 86.7811)" fill="#FDB649"/>
<rect x="1330.03" y="95.3877" width="3.58127" height="1674.85" transform="rotate(48 1330.03 95.3877)" fill="#FDB649"/>
</g>
</svg>
