<svg width="315" height="350" viewBox="0 0 315 350" fill="none" xmlns="http://www.w3.org/2000/svg">
<path d="M347.899 345.365C338.053 335.632 329.205 326.876 320.347 318.132C312.353 310.24 304.415 302.293 296.33 294.494C288.17 286.622 280.506 278.275 272.209 270.522C266.301 265.001 261.193 258.654 255.511 252.883C247.634 244.881 239.557 237.07 231.561 229.181C223.741 221.468 216.013 213.662 208.07 206.076C200.006 198.373 191.986 190.567 184.562 182.338C180.805 178.172 177.402 177.309 172.496 177.318C120.691 177.403 68.8878 177.371 17.0832 177.371H9.15209C10.0038 178.613 10.3356 179.286 10.8353 179.799C22.9966 192.278 35.1336 204.779 47.3586 217.198C77.091 247.398 108.389 276.072 137.268 307.116C148.132 318.795 160.057 329.509 171.213 340.933C174.474 344.271 177.762 345.477 182.415 345.463C234.972 345.307 287.531 345.365 340.09 345.365L347.899 345.365ZM9.17511 5.02541C26.7476 23.0234 43.4181 40.3903 60.4191 57.437C80.169 77.2397 100.16 96.8104 120.158 116.37C124.381 120.5 127.736 125.321 132.576 129.048C137.752 133.033 141.543 138.721 146.188 143.426C154.433 151.778 163.011 159.812 171.144 168.264C174.349 171.595 177.618 172.892 182.323 172.876C234.91 172.704 287.498 172.768 340.087 172.768H347.34C318.921 144.073 291.321 116.01 263.497 88.1636C235.653 60.2997 207.588 32.652 179.736 5.02541H9.17511ZM168.364 172.768C160.984 165.53 154.88 159.647 148.891 153.653C118.906 123.656 88.9247 93.6543 59.0122 63.588C54.1712 58.723 50.0262 53.1457 44.9293 48.5795C37.7064 42.1111 31.5438 34.6703 24.4591 28.0885C17.5057 21.628 10.861 14.8395 4.17298 8.10826C2.34223 6.26477 -0.451311 4.85606 0.0619005 1.39446C2.44649 -0.769331 5.35519 0.232535 7.9524 0.225852C40.4147 0.14452 72.877 0.172523 105.339 0.172523C129.248 0.172523 153.155 0.259232 177.06 0.0924063C181.383 0.0630991 184.564 1.17169 187.656 4.28515C219.119 35.9775 251.262 67.0349 282.112 99.2929C304.364 122.559 327.825 144.6 350.286 167.629C352.469 169.868 354.331 172.41 357 175.6C354.383 176.408 352.865 177.089 351.282 177.31C349.555 177.553 347.766 177.37 346.005 177.37C295.926 177.371 245.847 177.371 195.769 177.371H187.066C192.225 182.122 196.688 186.007 200.874 190.163C203.677 192.945 205.902 196.294 208.704 199.078C226.07 216.326 243.576 233.438 260.924 250.707C266.141 255.901 270.385 262.233 276.182 266.626C283.267 271.995 287.734 279.525 294.361 285.201C300.801 290.718 306.536 297.036 312.582 302.999C324.676 314.925 336.719 326.902 348.905 338.737C351.963 341.707 354.211 345.084 356.882 349.218C354.387 349.526 352.736 349.908 351.082 349.909C293.203 349.94 235.324 349.909 177.444 350C174.127 350.005 171.785 348.989 169.536 346.682C158.221 335.084 146.843 323.543 135.366 312.102C130.85 307.6 125.611 303.757 121.395 299.014C101.495 276.624 79.0586 256.698 58.0819 235.359C52.5828 229.766 47.0797 224.172 41.4493 218.695C28.1234 205.728 15.3391 192.22 2.34768 178.919C0.946167 177.485 0.981379 177.451 0.132359 173.017C9.4514 172.501 18.6824 172.841 27.8959 172.781C37.2068 172.72 46.5191 172.768 55.83 172.768H168.364Z" fill="#FDB649"/>
</svg>
