<svg width="61" height="24" viewBox="0 0 61 24" fill="none" xmlns="http://www.w3.org/2000/svg">
<path d="M59.88 9.47495C59.8162 9.45378 59.7436 9.43261 59.6604 9.41144C59.5771 9.39027 59.4867 9.37969 59.3929 9.37969C59.0882 9.37969 58.8047 9.42909 58.5425 9.52789C58.2804 9.62669 58.0536 9.76077 57.8658 9.92838C57.6763 10.096 57.5275 10.2918 57.4176 10.5159C57.3078 10.7417 57.2529 10.9781 57.2529 11.2304L57.2369 15.6853H55.7099V8.1729H56.9234L57.2387 9.00389C57.4477 8.70043 57.7241 8.45695 58.066 8.27523C58.4079 8.09174 58.8348 8 59.3503 8C59.6869 8 60.0696 8.04763 60.5 8.14114L60.1068 9.56847C60.0271 9.53847 59.9544 9.50671 59.88 9.47495Z" fill="black"/>
<path d="M53.9916 8.17456V15.687H52.7001L52.4645 14.8242C52.2024 15.17 51.8658 15.4311 51.4566 15.6093C51.0473 15.7875 50.6328 15.8757 50.213 15.8757C49.6886 15.8757 49.1979 15.7734 48.7408 15.5705C48.2838 15.3659 47.8852 15.0871 47.5433 14.7307C47.2014 14.3743 46.9321 13.9562 46.7319 13.4763C46.5318 12.9946 46.4326 12.483 46.4326 11.9396C46.4326 11.3962 46.5318 10.8828 46.7319 10.4029C46.9321 9.92122 47.2014 9.50308 47.5433 9.14845C47.8852 8.79383 48.2838 8.5133 48.7408 8.30864C49.1979 8.10399 49.6886 8.00342 50.213 8.00342C50.6328 8.00342 51.0367 8.08458 51.4264 8.24689C51.8144 8.40921 52.1616 8.66327 52.4663 9.00731L52.7019 8.17632H53.9916V8.17456ZM50.2112 14.526C50.5159 14.526 50.8046 14.4572 51.0774 14.3214C51.3503 14.1855 51.5859 14.0003 51.7861 13.7639C51.9862 13.5292 52.1421 13.254 52.259 12.9399C52.3742 12.6259 52.4327 12.2924 52.4327 11.936C52.4327 11.5814 52.3742 11.2462 52.259 10.9322C52.1439 10.6181 51.9862 10.3447 51.7861 10.1082C51.5859 9.87358 51.3503 9.68657 51.0774 9.55071C50.8046 9.41486 50.5159 9.34605 50.2112 9.34605C49.9065 9.34605 49.6177 9.41486 49.3449 9.55071C49.0721 9.68657 48.8347 9.87182 48.6363 10.1082C48.4361 10.3429 48.2785 10.6181 48.1633 10.9322C48.0482 11.2462 47.9897 11.5814 47.9897 11.936C47.9897 12.2924 48.0482 12.6259 48.1633 12.9399C48.2785 13.254 48.4361 13.5275 48.6363 13.7639C48.8365 13.9985 49.0721 14.1855 49.3449 14.3214C49.6177 14.459 49.9065 14.526 50.2112 14.526Z" fill="black"/>
<path d="M42.2908 15.8757C41.7665 15.8757 41.2757 15.7734 40.8187 15.5705C40.3616 15.3659 39.9648 15.0871 39.6265 14.7307C39.2881 14.3743 39.0206 13.9562 38.824 13.4763C38.6273 12.9946 38.5281 12.483 38.5281 11.9396C38.5281 11.3962 38.6273 10.8828 38.824 10.4029C39.0206 9.92122 39.2881 9.50308 39.6265 9.14845C39.9648 8.79383 40.3616 8.5133 40.8187 8.30864C41.2757 8.10399 41.7665 8.00342 42.2908 8.00342C42.9002 8.00342 43.4618 8.13927 43.9755 8.41097C44.4893 8.68267 44.9197 9.05318 45.2669 9.52425L44.197 10.3552C43.9862 10.0518 43.7222 9.81359 43.4016 9.64246C43.0809 9.46955 42.7372 9.3831 42.3705 9.3831C42.0552 9.3831 41.7558 9.44839 41.4724 9.57894C41.1889 9.7095 40.9427 9.88946 40.7319 10.1206C40.5211 10.3499 40.3563 10.6216 40.2359 10.9357C40.1154 11.2497 40.0552 11.585 40.0552 11.9396C40.0552 12.296 40.1154 12.6294 40.2359 12.9435C40.3563 13.2575 40.5211 13.531 40.7319 13.7674C40.9409 14.002 41.1889 14.1891 41.4724 14.3249C41.7558 14.4608 42.0552 14.5296 42.3705 14.5296C42.7798 14.5296 43.1518 14.4202 43.4884 14.1997C43.8249 13.9809 44.0978 13.688 44.3068 13.321L45.3467 14.2314C45.0101 14.7342 44.5743 15.133 44.0393 15.4311C43.5025 15.7258 42.9197 15.8757 42.2908 15.8757Z" fill="black"/>
<path d="M28.4941 15.6872L25.959 8.1748H27.58L29.3444 13.8523L31.2027 8.1748H32.5579L34.4162 13.8047L36.1647 8.1748H37.7856L35.2506 15.6872H33.5818L32.007 11.0912L31.8794 10.3696L31.7536 11.0912L30.1947 15.6872H28.4941Z" fill="black"/>
<path d="M20.1262 17.7411C18.3261 20.2487 15.3794 21.8828 12.049 21.8828C6.56884 21.8828 2.12673 17.4588 2.12673 12.0009C2.12673 6.54304 6.56884 2.119 12.049 2.119C14.438 2.119 16.6292 2.96036 18.3418 4.36172L15.3684 15.3123L13.0236 6.74376H11.3146L8.96981 15.3838L6.74461 6.74376H4.69795L7.89586 18.1755H10.0419L12.0094 11.1825L12.1686 10.0845L12.3278 11.1825L14.3147 18.1755H16.4212L20.5062 3.90621L20.6065 3.55335C18.4237 1.36012 15.3951 0 12.0481 0C5.39367 0 0 5.37264 0 12C0 18.6274 5.39459 24 12.0481 24C15.9574 24 19.4314 22.1459 21.6326 19.2735L20.1262 17.7411Z" fill="#EC671B"/>
</svg>
