<svg width="26" height="26" viewBox="0 0 26 26" fill="currentColor" xmlns="http://www.w3.org/2000/svg">
<path d="M4.73337 20.5642C6.065 19.6463 7.38977 18.9348 8.70771 18.4296C10.0257 17.9245 11.4564 17.6719 13 17.6719C14.5436 17.6719 15.9778 17.9245 17.3026 18.4296C18.6274 18.9348 19.9556 19.6463 21.2872 20.5642C22.2564 19.4412 22.9765 18.2553 23.4474 17.0067C23.9184 15.7581 24.1538 14.4226 24.1538 13.0001C24.1538 9.85484 23.0812 7.20954 20.9359 5.06423C18.7906 2.91894 16.1453 1.8463 13 1.8463C9.85472 1.8463 7.20942 2.91894 5.06411 5.06423C2.91882 7.20954 1.84617 9.85484 1.84617 13.0001C1.84617 14.4226 2.08506 15.7581 2.56284 17.0067C3.04062 18.2553 3.76413 19.4412 4.73337 20.5642ZM12.9928 13.7565C11.7942 13.7565 10.7859 13.3451 9.96797 12.5224C9.15002 11.6996 8.74104 10.6889 8.74104 9.49033C8.74104 8.29175 9.15243 7.28349 9.97521 6.46553C10.798 5.6476 11.8086 5.23863 13.0072 5.23863C14.2058 5.23863 15.2141 5.65001 16.032 6.47276C16.85 7.29552 17.259 8.3062 17.259 9.5048C17.259 10.7034 16.8476 11.7117 16.0248 12.5296C15.2021 13.3476 14.1914 13.7565 12.9928 13.7565ZM13.0156 25.6668C11.2599 25.6668 9.61279 25.336 8.07421 24.6744C6.53565 24.0129 5.19164 23.1065 4.04217 21.9552C2.89273 20.8039 1.98724 19.4625 1.32571 17.931C0.664152 16.3994 0.333374 14.755 0.333374 12.9977C0.333374 11.2403 0.664152 9.59672 1.32571 8.06683C1.98724 6.53692 2.89364 5.19632 4.04491 4.04503C5.1962 2.89376 6.53761 1.98736 8.06914 1.32583C9.6007 0.664274 11.2451 0.333496 13.0025 0.333496C14.7598 0.333496 16.4034 0.664274 17.9333 1.32583C19.4632 1.98736 20.8038 2.89376 21.9551 4.04503C23.1064 5.19632 24.0128 6.53727 24.6743 8.0679C25.3359 9.59852 25.6666 11.2374 25.6666 12.9845C25.6666 14.7402 25.3359 16.3874 24.6743 17.9259C24.0128 19.4645 23.1064 20.8085 21.9551 21.958C20.8038 23.1074 19.4629 24.0129 17.9322 24.6744C16.4016 25.336 14.7627 25.6668 13.0156 25.6668ZM13 24.154C14.2393 24.154 15.4615 23.957 16.6667 23.5629C17.8718 23.1689 19.0069 22.5317 20.0718 21.6514C19.0069 20.8685 17.8791 20.2616 16.6885 19.8309C15.4979 19.4001 14.2684 19.1847 13 19.1847C11.7316 19.1847 10.5 19.398 9.30514 19.8245C8.11025 20.251 6.98888 20.8599 5.94104 21.6514C6.99744 22.5317 8.12821 23.1689 9.33334 23.5629C10.5385 23.957 11.7607 24.154 13 24.154ZM13.0018 12.2437C13.7989 12.2437 14.4556 11.985 14.9718 11.4676C15.4881 10.9502 15.7462 10.2929 15.7462 9.4958C15.7462 8.69868 15.4875 8.04201 14.97 7.52576C14.4526 7.00952 13.7953 6.7514 12.9982 6.7514C12.2011 6.7514 11.5445 7.01012 11.0282 7.52756C10.512 8.04499 10.2538 8.70225 10.2538 9.49936C10.2538 10.2965 10.5126 10.9531 11.03 11.4694C11.5474 11.9856 12.2047 12.2437 13.0018 12.2437Z" fill="current"/>
</svg>
