<svg width="20" height="20" viewBox="0 0 20 20" fill="none" xmlns="http://www.w3.org/2000/svg">
<path d="M9.41923 16.9346H10.5154V15.6827C11.423 15.6109 12.1794 15.3321 12.7846 14.8462C13.3897 14.3603 13.6923 13.6795 13.6923 12.8039C13.6923 11.9923 13.4554 11.3359 12.9817 10.8346C12.508 10.3333 11.6897 9.84745 10.5269 9.37693C9.49611 8.97053 8.7897 8.6122 8.40765 8.30193C8.0256 7.99168 7.83458 7.56348 7.83458 7.01733C7.83458 6.48783 8.0365 6.05706 8.44035 5.72501C8.8442 5.39296 9.38074 5.22693 10.05 5.22693C10.55 5.22693 10.9833 5.34039 11.35 5.56731C11.7166 5.79422 12.0282 6.12179 12.2846 6.55001L13.225 6.10963C12.9416 5.57758 12.573 5.15771 12.1192 4.85001C11.6653 4.54232 11.1474 4.36156 10.5654 4.30771V3.08078H9.46922V4.30771C8.60639 4.42437 7.93716 4.73206 7.46153 5.23078C6.98589 5.7295 6.74808 6.32501 6.74808 7.01733C6.74808 7.79553 6.99006 8.41347 7.47403 8.87116C7.95799 9.32884 8.72242 9.76602 9.7673 10.1827C10.8776 10.6365 11.6298 11.0445 12.024 11.4067C12.4183 11.7689 12.6154 12.2346 12.6154 12.8039C12.6154 13.4205 12.3721 13.8946 11.8856 14.226C11.399 14.5574 10.8256 14.7231 10.1654 14.7231C9.53458 14.7231 8.96664 14.5462 8.46153 14.1923C7.95639 13.8385 7.58459 13.3513 7.34613 12.7308L6.35 13.0885C6.69358 13.8038 7.11473 14.3615 7.61345 14.7615C8.11217 15.1615 8.71409 15.4519 9.41923 15.6327V16.9346ZM9.99998 19.5C8.69741 19.5 7.46985 19.2503 6.3173 18.7509C5.16473 18.2516 4.15673 17.5702 3.29328 16.7067C2.42981 15.8433 1.7484 14.8352 1.24905 13.6827C0.749683 12.5301 0.5 11.3026 0.5 10C0.5 8.68719 0.749683 7.4529 1.24905 6.29713C1.7484 5.14136 2.42981 4.13592 3.29328 3.28081C4.15673 2.42567 5.16473 1.74843 6.3173 1.24908C7.46985 0.749714 8.69741 0.500031 9.99998 0.500031C11.3128 0.500031 12.5471 0.749714 13.7029 1.24908C14.8586 1.74843 15.8641 2.42567 16.7192 3.28081C17.5743 4.13592 18.2516 5.14136 18.7509 6.29713C19.2503 7.4529 19.5 8.68719 19.5 10C19.5 11.3026 19.2503 12.5301 18.7509 13.6827C18.2516 14.8352 17.5743 15.8433 16.7192 16.7067C15.8641 17.5702 14.8586 18.2516 13.7029 18.7509C12.5471 19.2503 11.3128 19.5 9.99998 19.5ZM9.99998 18.3654C12.3282 18.3654 14.3045 17.5506 15.9288 15.9212C17.5532 14.2917 18.3654 12.318 18.3654 10C18.3654 7.67181 17.5532 5.69552 15.9288 4.07116C14.3045 2.44681 12.3282 1.63463 9.99998 1.63463C7.68203 1.63463 5.70831 2.44681 4.07883 4.07116C2.44934 5.69552 1.6346 7.67181 1.6346 10C1.6346 12.318 2.44934 14.2917 4.07883 15.9212C5.70831 17.5506 7.68203 18.3654 9.99998 18.3654Z" fill="#90A3BF"/>
</svg>
