<svg width="32" height="32" viewBox="0 0 32 32" fill="currentColor" xmlns="http://www.w3.org/2000/svg">
<g id="Icons/arrow_circle" fill="currentColor" >
<path id="Vector" d="M16 20.5206L20.5205 16.0001L16 11.4796L14.9462 12.5335L17.6565 15.2437H11.2436V16.7565H17.6565L14.9462 19.4668L16 20.5206ZM16.0022 28.6668C14.264 28.6668 12.6263 28.3343 11.089 27.6694C9.55176 27.0045 8.20744 26.0967 7.05604 24.9458C5.90462 23.7949 4.99632 22.4511 4.33114 20.9146C3.66596 19.378 3.33337 17.7406 3.33337 16.0024C3.33337 14.2505 3.66582 12.6037 4.33071 11.0622C4.9956 9.5207 5.90349 8.17979 7.05437 7.0395C8.20529 5.89918 9.54902 4.99644 11.0856 4.33126C12.6222 3.66608 14.2596 3.3335 15.9978 3.3335C17.7497 3.3335 19.3964 3.66594 20.9379 4.33083C22.4794 4.99572 23.8204 5.89805 24.9606 7.03783C26.101 8.17763 27.0037 9.51795 27.6689 11.0588C28.3341 12.5996 28.6666 14.246 28.6666 15.9979C28.6666 17.7361 28.3342 19.3739 27.6693 20.9111C27.0044 22.4484 26.1021 23.7927 24.9623 24.9441C23.8225 26.0955 22.4822 27.0038 20.9413 27.669C19.4005 28.3342 17.7542 28.6668 16.0022 28.6668ZM16 27.154C19.1043 27.154 21.7393 26.0676 23.9051 23.895C26.0709 21.7224 27.1538 19.0907 27.1538 16.0001C27.1538 12.8959 26.0709 10.2608 23.9051 8.095C21.7393 5.9292 19.1043 4.8463 16 4.8463C12.9094 4.8463 10.2778 5.9292 8.10514 8.095C5.9325 10.2608 4.84617 12.8959 4.84617 16.0001C4.84617 19.0907 5.9325 21.7224 8.10514 23.895C10.2778 26.0676 12.9094 27.154 16 27.154Z" fill="currentColor"/>
</g>
</svg>
