<svg width="24" height="21" viewBox="0 0 24 21" fill="none" xmlns="http://www.w3.org/2000/svg">
<path d="M2.51279 17.5719V19.577C2.51279 19.7913 2.4403 19.971 2.29532 20.116C2.15036 20.2609 1.97073 20.3334 1.75642 20.3334H1.42309C1.20878 20.3334 1.02913 20.2609 0.884153 20.116C0.739175 19.971 0.666687 19.7913 0.666687 19.577V9.25143L3.41029 1.0899C3.49575 0.855718 3.63934 0.671107 3.84105 0.536063C4.04276 0.401018 4.27011 0.333496 4.52309 0.333496H19.5282C19.7774 0.333496 19.9955 0.400063 20.1825 0.533196C20.3694 0.666307 20.5051 0.851873 20.5897 1.0899L23.3333 9.25143V19.577C23.3333 19.7913 23.2608 19.971 23.1158 20.116C22.9708 20.2609 22.7912 20.3334 22.5769 20.3334H22.2231C22.0087 20.3334 21.8291 20.2609 21.6841 20.116C21.5391 19.971 21.4667 19.7913 21.4667 19.577V17.5719H2.51279ZM2.76665 7.73863H21.2333L19.2333 1.8463H4.76665L2.76665 7.73863ZM5.60315 14.277C6.05915 14.277 6.44014 14.1203 6.74612 13.8067C7.05212 13.4932 7.20512 13.1152 7.20512 12.6728C7.20512 12.2118 7.04834 11.8234 6.73479 11.5074C6.42123 11.1914 6.04462 11.0335 5.60495 11.0335C5.14678 11.0335 4.75833 11.1917 4.43962 11.5081C4.12091 11.8246 3.96155 12.2122 3.96155 12.6709C3.96155 13.1297 4.12115 13.5121 4.44035 13.8181C4.75955 14.124 5.14715 14.277 5.60315 14.277ZM18.4246 14.277C18.8802 14.277 19.2665 14.1203 19.5835 13.8067C19.9005 13.4932 20.059 13.1152 20.059 12.6728C20.059 12.2118 19.9002 11.8234 19.5828 11.5074C19.2653 11.1914 18.8799 11.0335 18.4264 11.0335C17.9729 11.0335 17.591 11.1917 17.2808 11.5081C16.9705 11.8246 16.8154 12.2122 16.8154 12.6709C16.8154 13.1297 16.9743 13.5121 17.2921 13.8181C17.6099 14.124 17.9874 14.277 18.4246 14.277Z" fill="#90A3BF"/>
</svg>
