<svg width="22" height="23" viewBox="0 0 22 23" fill="none" xmlns="http://www.w3.org/2000/svg">
<path d="M3.10045 1.59359L4.18139 0.5L15.5068 11.6781C15.985 12.1592 16.2242 12.733 16.2242 13.3994C16.2242 14.0659 15.9885 14.6291 15.5173 15.0892L9.999 20.5675C9.53635 21.0246 8.98856 21.2532 8.35563 21.2532C7.72272 21.2532 7.17494 21.0246 6.71229 20.5675L1.20689 15.0892C0.735628 14.6286 0.5 14.0646 0.5 13.3973C0.5 12.73 0.735628 12.1617 1.20689 11.6926L7.27469 5.71826L3.10045 1.59359ZM8.36854 6.79912L2.02985 13.0371C1.98685 13.0796 1.9589 13.1242 1.946 13.1709C1.9331 13.2177 1.92665 13.2665 1.92665 13.3175H14.7976C14.7976 13.2665 14.789 13.2177 14.7718 13.1709C14.7545 13.1242 14.7287 13.0796 14.6944 13.0371L8.36854 6.79912ZM19.349 22.25C18.7518 22.25 18.2443 22.0419 17.8263 21.6256C17.4084 21.2093 17.1994 20.7071 17.1994 20.1189C17.1994 19.7441 17.2846 19.3632 17.4548 18.9761C17.6251 18.5891 17.8452 18.1933 18.1153 17.7889C18.2855 17.5271 18.482 17.2518 18.7048 16.9629C18.9275 16.674 19.1446 16.3987 19.3562 16.137C19.5677 16.3987 19.7848 16.674 20.0076 16.9629C20.2303 17.2518 20.4225 17.5271 20.5842 17.7889C20.8542 18.1933 21.0743 18.5891 21.2446 18.9761C21.4149 19.3632 21.5 19.7441 21.5 20.1189C21.5 20.7071 21.2887 21.2093 20.866 21.6256C20.4433 22.0419 19.9376 22.25 19.349 22.25Z" fill="#90A3BF"/>
</svg>
