<svg width="16" height="18" viewBox="0 0 16 18" fill="none" xmlns="http://www.w3.org/2000/svg">
<path d="M0.5 17.5V1.94236C0.5 1.55021 0.64235 1.21178 0.92705 0.92708C1.21175 0.64238 1.55017 0.500031 1.94232 0.500031H7.85957C8.25171 0.500031 8.59013 0.64238 8.87483 0.92708C9.15953 1.21178 9.30188 1.55021 9.30188 1.94236V8.58461H10.7153C11.0575 8.58461 11.3529 8.70901 11.6017 8.95781C11.8505 9.20661 11.9749 9.50208 11.9749 9.84423V15.0941C11.9749 15.4772 12.1105 15.799 12.3817 16.0594C12.6528 16.3198 12.9813 16.45 13.3672 16.45C13.7531 16.45 14.0817 16.3191 14.3528 16.0575C14.624 15.7958 14.7595 15.476 14.7595 15.0981V7.96346C14.5826 8.06346 14.3983 8.14006 14.2066 8.19328C14.0148 8.24648 13.8235 8.27308 13.6326 8.27308C13.05 8.27308 12.5576 8.07194 12.1553 7.66966C11.753 7.26737 11.5519 6.77493 11.5519 6.19233C11.5519 5.70388 11.6955 5.26895 11.9826 4.88753C12.2698 4.50611 12.6506 4.26477 13.125 4.16351L10.673 1.71158L11.4 1.00003L15.0615 4.67118C15.2692 4.87888 15.439 5.10932 15.5711 5.36251C15.7031 5.61571 15.7691 5.89231 15.7691 6.19233V15.0981C15.7691 15.7706 15.5377 16.339 15.0748 16.8034C14.6119 17.2678 14.0452 17.5 13.3748 17.5C12.7044 17.5 12.1352 17.2678 11.6672 16.8034C11.1993 16.339 10.9653 15.7706 10.9653 15.0981V9.90193C10.9653 9.81858 10.9365 9.74646 10.8788 9.68556C10.8211 9.62466 10.7474 9.59421 10.6576 9.59421H9.30188V17.5H0.5ZM1.6346 7.39233H8.16727V1.94236C8.16727 1.86542 8.13523 1.7949 8.07113 1.73078C8.00701 1.66668 7.93649 1.63463 7.85957 1.63463H1.94232C1.86539 1.63463 1.79487 1.66668 1.73075 1.73078C1.66665 1.7949 1.6346 1.86542 1.6346 1.94236V7.39233ZM13.6345 7.26348C13.9269 7.26348 14.1782 7.15773 14.3884 6.94623C14.5987 6.73475 14.7038 6.48283 14.7038 6.19048C14.7038 5.89813 14.598 5.64682 14.3866 5.43656C14.1751 5.22631 13.9231 5.12118 13.6308 5.12118C13.3384 5.12118 13.0871 5.22692 12.8769 5.43841C12.6666 5.64991 12.5615 5.90183 12.5615 6.19418C12.5615 6.48653 12.6672 6.73784 12.8787 6.94811C13.0902 7.15836 13.3421 7.26348 13.6345 7.26348ZM1.6346 16.3654H8.16727V8.52691H1.6346V16.3654Z" fill="#90A3BF"/>
</svg>
