<svg width="30" height="23" viewBox="0 0 30 23" fill="none" xmlns="http://www.w3.org/2000/svg">
<path d="M1.60259 22.9743C1.38784 22.9743 1.20808 22.9013 1.06332 22.7554C0.918569 22.6095 0.846191 22.4283 0.846191 22.2118C0.846191 21.9954 0.918569 21.8162 1.06332 21.6743C1.20808 21.5324 1.38784 21.4615 1.60259 21.4615H28.3974C28.6121 21.4615 28.7919 21.5345 28.9367 21.6804C29.0814 21.8263 29.1538 22.0075 29.1538 22.224C29.1538 22.4404 29.0814 22.6196 28.9367 22.7615C28.7919 22.9033 28.6121 22.9743 28.3974 22.9743H1.60259ZM4.25646 19.641C3.73359 19.641 3.28236 19.4512 2.90276 19.0716C2.52316 18.692 2.33336 18.2408 2.33336 17.7179V2.89749C2.33336 2.37463 2.52316 1.9234 2.90276 1.54383C3.28236 1.16423 3.73359 0.974426 4.25646 0.974426H25.7435C26.2664 0.974426 26.7176 1.16423 27.0972 1.54383C27.4768 1.9234 27.6666 2.37463 27.6666 2.89749V17.7179C27.6666 18.2408 27.4768 18.692 27.0972 19.0716C26.7176 19.4512 26.2664 19.641 25.7435 19.641H4.25646ZM4.25646 18.1282H25.7435C25.8461 18.1282 25.9401 18.0855 26.0256 18C26.1111 17.9145 26.1538 17.8205 26.1538 17.7179V2.89749C26.1538 2.79491 26.1111 2.70089 26.0256 2.61543C25.9401 2.52994 25.8461 2.48719 25.7435 2.48719H4.25646C4.15388 2.48719 4.05985 2.52994 3.97436 2.61543C3.88889 2.70089 3.84616 2.79491 3.84616 2.89749V17.7179C3.84616 17.8205 3.88889 17.9145 3.97436 18C4.05985 18.0855 4.15388 18.1282 4.25646 18.1282Z" fill="#90A3BF"/>
</svg>
