<svg width="30" height="25" viewBox="0 0 30 25" fill="none" xmlns="http://www.w3.org/2000/svg">
<path d="M26.5064 4.92313V21.0769C26.5064 21.5997 26.3309 22.051 25.9799 22.4306C25.6289 22.8102 25.2116 23 24.7282 23H4.86022C4.37675 23 3.95952 22.8102 3.60853 22.4306C3.25753 22.051 3.08203 21.5997 3.08203 21.0769V4.92313C3.08203 4.40026 3.25753 3.94903 3.60853 3.56943C3.95952 3.18983 4.37675 3.00003 4.86022 3.00003H24.7282C25.2116 3.00003 25.6289 3.18983 25.9799 3.56943C26.3309 3.94903 26.5064 4.40026 26.5064 4.92313ZM4.48084 8.42823H25.1076V4.92313C25.1076 4.82055 25.068 4.72652 24.989 4.64103C24.91 4.55557 24.823 4.51283 24.7282 4.51283H4.86022C4.76537 4.51283 4.67842 4.55557 4.59938 4.64103C4.52035 4.72652 4.48084 4.82055 4.48084 4.92313V8.42823ZM4.48084 11.9205V21.0769C4.48084 21.1794 4.52035 21.2735 4.59938 21.359C4.67842 21.4444 4.76537 21.4872 4.86022 21.4872H24.7282C24.823 21.4872 24.91 21.4444 24.989 21.359C25.068 21.2735 25.1076 21.1794 25.1076 21.0769V11.9205H4.48084Z" fill="#90A3BF"/>
</svg>
