<svg width="26" height="26" viewBox="0 0 26 26" fill="none" xmlns="http://www.w3.org/2000/svg">
<path d="M12.2256 22.2461H13.6871V20.5769C14.8973 20.4812 15.9058 20.1094 16.7127 19.4615C17.5195 18.8137 17.923 17.906 17.923 16.7385C17.923 15.6564 17.6071 14.7812 16.9755 14.1128C16.3439 13.4445 15.2529 12.7966 13.7024 12.1692C12.3281 11.6274 11.3862 11.1496 10.8768 10.7359C10.3674 10.3222 10.1127 9.75131 10.1127 9.02311C10.1127 8.31711 10.3819 7.74274 10.9204 7.30001C11.4589 6.85727 12.1742 6.63591 13.0666 6.63591C13.7332 6.63591 14.311 6.78718 14.7999 7.08974C15.2888 7.3923 15.7042 7.82905 16.0461 8.40001L17.2999 7.81284C16.9221 7.10344 16.4306 6.54361 15.8255 6.13334C15.2204 5.7231 14.5298 5.48207 13.7537 5.41027V3.77437H12.2922V5.41027C11.1418 5.56583 10.2495 5.97608 9.61529 6.64104C8.98111 7.306 8.66402 8.10002 8.66402 9.02311C8.66402 10.0607 8.98666 10.8846 9.63195 11.4949C10.2772 12.1051 11.2965 12.688 12.6897 13.2436C14.17 13.8487 15.173 14.3927 15.6986 14.8756C16.2243 15.3586 16.4871 15.9795 16.4871 16.7385C16.4871 17.5607 16.1627 18.1928 15.514 18.6346C14.8653 19.0765 14.1007 19.2974 13.2204 19.2974C12.3794 19.2974 11.6221 19.0616 10.9486 18.5898C10.2751 18.118 9.77938 17.4684 9.46142 16.641L8.13325 17.118C8.59136 18.0718 9.1529 18.8154 9.81785 19.3487C10.4828 19.882 11.2854 20.2692 12.2256 20.5102V22.2461ZM12.9999 25.6666C11.2631 25.6666 9.62639 25.3337 8.08965 24.6679C6.5529 24.0021 5.20889 23.0936 4.05762 21.9423C2.90633 20.791 1.99779 19.447 1.33199 17.9102C0.666163 16.3735 0.333252 14.7368 0.333252 13C0.333252 11.2496 0.666163 9.60386 1.33199 8.06284C1.99779 6.52182 2.90633 5.18123 4.05762 4.04107C5.20889 2.9009 6.5529 1.99791 8.08965 1.33211C9.62639 0.666285 11.2631 0.333374 12.9999 0.333374C14.7503 0.333374 16.396 0.666285 17.9371 1.33211C19.4781 1.99791 20.8187 2.9009 21.9588 4.04107C23.099 5.18123 24.002 6.52182 24.6678 8.06284C25.3336 9.60386 25.6665 11.2496 25.6665 13C25.6665 14.7368 25.3336 16.3735 24.6678 17.9102C24.002 19.447 23.099 20.791 21.9588 21.9423C20.8187 23.0936 19.4781 24.0021 17.9371 24.6679C16.396 25.3337 14.7503 25.6666 12.9999 25.6666ZM12.9999 24.1538C16.1042 24.1538 18.7392 23.0675 20.905 20.8949C23.0708 18.7222 24.1537 16.0906 24.1537 13C24.1537 9.89574 23.0708 7.2607 20.905 5.09487C18.7392 2.92907 16.1042 1.84617 12.9999 1.84617C9.90929 1.84617 7.27766 2.92907 5.10502 5.09487C2.93237 7.2607 1.84605 9.89574 1.84605 13C1.84605 16.0906 2.93237 18.7222 5.10502 20.8949C7.27766 23.0675 9.90929 24.1538 12.9999 24.1538Z" fill="#90A3BF"/>
</svg>
