<svg width="24" height="24" viewBox="0 0 24 24" fill="none" xmlns="http://www.w3.org/2000/svg">
<path d="M5.2277 6.75002C5.2277 6.75002 4.69154 6.74332 4.14109 6.99914C3.59059 7.25495 3 7.80362 3 8.83263V12.1674C3 13.201 3.59059 13.7451 4.14109 14.0009C4.69159 14.2567 5.2277 14.25 5.2277 14.25H17.2723C17.2723 14.25 17.8085 14.2567 18.3589 14.0009C18.9094 13.745 19.5 13.2001 19.5 12.1674L19.4998 10.5002C19.499 10.3556 19.4201 10.2217 19.2914 10.1463L13.6475 6.81159C13.5789 6.77122 13.5002 6.75001 13.4197 6.75001L5.2277 6.75002ZM5.2277 7.5837H13.2981L18.6314 10.7339V12.1676C18.6314 12.7916 18.3267 13.0896 17.9807 13.2504C17.6347 13.4113 17.2725 13.4165 17.2725 13.4165L5.2279 13.4167C5.2279 13.4167 4.86562 13.4115 4.51965 13.2505C4.17368 13.0896 3.86897 12.7886 3.86897 12.1676V8.83284C3.86897 8.20439 4.17367 7.91081 4.51965 7.75006C4.86565 7.58913 5.2279 7.58373 5.2279 7.58373L5.2277 7.5837Z" fill="#90A3BF"/>
<path d="M2.95883 3.00027C2.95883 3.00027 2.42721 2.99339 1.88143 3.25644C1.33579 3.51969 0.75 4.08826 0.75 5.14183V18.8552C0.75 19.9183 1.33559 20.4775 1.88143 20.7406C2.42726 21.0036 2.95883 21 2.95883 21H18.3465C18.5819 20.9992 18.7729 20.8104 18.7754 20.576C18.801 18.2076 19.9718 17.0465 21.1684 16.454C22.365 15.8617 23.5678 15.8562 23.5678 15.8562C23.8055 15.8571 23.999 15.6658 24 15.4291V9.42808C23.999 9.28747 23.9291 9.15623 23.8124 9.07702L15.1496 3.07596C15.0768 3.02584 14.9903 2.99944 14.9017 3.00001L2.95883 3.00027ZM2.95883 3.85755H14.7681L23.1386 9.65291V15.0256C23.1386 15.0256 21.9711 15.1023 20.787 15.6885C19.4793 16.3359 18.0978 17.6326 17.9337 20.1426H2.95839C2.95839 20.1426 2.60226 20.1373 2.25919 19.9718C1.91613 19.8065 1.61092 19.5008 1.61092 18.8551V5.14175C1.61092 4.50564 1.91612 4.19361 2.25919 4.02832C2.60226 3.86283 2.95839 3.85748 2.95839 3.85748L2.95883 3.85755Z" fill="#90A3BF"/>
<path d="M5.72624 15.75C5.11661 15.75 4.79606 16.0547 4.64505 16.3318C4.49401 16.609 4.50003 16.875 4.50003 16.875C4.50003 16.875 4.49401 17.141 4.64505 17.4182C4.79609 17.6953 5.11881 18 5.72624 18H7.77376C8.38049 18 8.70394 17.6953 8.85495 17.4182C9.00599 17.141 8.99997 16.875 8.99997 16.875C8.99997 16.875 9.00599 16.609 8.85495 16.3318C8.70391 16.0547 8.38012 15.75 7.77376 15.75H5.72624ZM5.72624 16.501H7.77376C7.97922 16.501 8.07054 16.569 8.12405 16.6672C8.17756 16.7654 8.1814 16.875 8.1814 16.875C8.1814 16.875 8.17756 16.9846 8.12405 17.0828C8.07054 17.1811 7.98269 17.2491 7.77376 17.2491H5.72624C5.51019 17.2491 5.43238 17.1811 5.37887 17.0828C5.32554 16.9846 5.3186 16.875 5.3186 16.875C5.3186 16.875 5.32554 16.7654 5.37905 16.6672C5.43257 16.569 5.51256 16.501 5.72643 16.501H5.72624Z" fill="#90A3BF"/>
</svg>
