<svg width="20" height="21" viewBox="0 0 20 21" fill="currentColor" xmlns="http://www.w3.org/2000/svg">
<path d="M1.9231 21C1.40023 21 0.949 20.8102 0.5694 20.4306C0.1898 20.051 0 19.5997 0 19.0769V14.9256H1.5128V19.0769C1.5128 19.1794 1.55553 19.2735 1.641 19.359C1.72649 19.4444 1.82052 19.4872 1.9231 19.4872H18.0768C18.1794 19.4872 18.2734 19.4444 18.3589 19.359C18.4444 19.2735 18.4871 19.1794 18.4871 19.0769V14.9256H19.9999V19.0769C19.9999 19.5997 19.8101 20.051 19.4305 20.4306C19.0509 20.8102 18.5997 21 18.0768 21H1.9231ZM9.99997 15.9897L4.47697 10.4667L5.5641 9.39236L9.24357 13.059V0.769257H10.7564V13.059L14.4358 9.39236L15.523 10.4667L9.99997 15.9897Z" fill="currentColor"/>
</svg>
