<svg width="24" height="24" viewBox="0 0 24 24" fill="none" xmlns="http://www.w3.org/2000/svg">
<path fill-rule="evenodd" clip-rule="evenodd" d="M9.1875 4.5H14.8125C17.4009 4.5 19.5 6.59906 19.5 9.1875V14.8125C19.5 17.4009 17.4009 19.5 14.8125 19.5H9.1875C6.59906 19.5 4.5 17.4009 4.5 14.8125V9.1875C4.5 6.59906 6.59906 4.5 9.1875 4.5ZM14.8125 18.0938C16.6219 18.0938 18.0938 16.6219 18.0938 14.8125V9.1875C18.0938 7.37813 16.6219 5.90625 14.8125 5.90625H9.1875C7.37813 5.90625 5.90625 7.37813 5.90625 9.1875V14.8125C5.90625 16.6219 7.37813 18.0938 9.1875 18.0938H14.8125Z" fill="#666C89"/>
<path fill-rule="evenodd" clip-rule="evenodd" d="M8.25 12C8.25 9.92906 9.92906 8.25 12 8.25C14.0709 8.25 15.75 9.92906 15.75 12C15.75 14.0709 14.0709 15.75 12 15.75C9.92906 15.75 8.25 14.0709 8.25 12ZM9.65625 12C9.65625 13.2919 10.7081 14.3438 12 14.3438C13.2919 14.3438 14.3438 13.2919 14.3438 12C14.3438 10.7072 13.2919 9.65625 12 9.65625C10.7081 9.65625 9.65625 10.7072 9.65625 12Z" fill="#666C89"/>
<ellipse cx="16.0314" cy="7.96868" rx="0.499687" ry="0.499688" fill="#666C89"/>
</svg>
