<svg width="32" height="24" viewBox="0 0 32 24" fill="none" xmlns="http://www.w3.org/2000/svg">
<path d="M30.9104 11.3446C30.9104 16.9673 24.0525 21.525 15.6044 21.525C7.15624 21.525 0.29834 16.9673 0.29834 11.3446C0.29834 5.72202 7.15624 1.15008 15.6044 1.15008C24.0525 1.16428 30.9104 5.72202 30.9104 11.3446Z" fill="#00BCFF"/>
<path d="M30.6121 10.9045C26.4236 10.223 21.1985 12.4663 20.5738 12.7077L20.233 12.8497L20.375 12.5089C20.6164 11.8274 20.7583 9.92479 20.6731 8.51913C20.5738 7.09928 21.1133 5.73622 21.3547 5.11148L21.3973 4.96949C21.5961 4.42995 21.8374 4.42995 22.1214 4.48674C22.2208 4.48674 22.3202 4.54354 22.4196 4.54354C22.8597 4.54354 23.3993 4.34476 23.7826 4.14598C23.9814 4.04659 24.166 3.9472 24.4074 3.9472C24.5494 3.9046 24.7055 3.9046 24.8049 3.84781C24.9469 3.80521 25.1031 3.74842 25.2451 3.74842C25.7846 3.70582 26.168 3.60643 26.168 3.20887C26.168 3.16628 26.168 3.06689 26.0686 3.01009C25.9692 2.9675 25.8272 2.9107 25.3871 3.01009H25.3445C25.1457 3.06689 24.7055 3.15208 25.1031 2.81131C25.1031 2.75452 25.1457 2.75452 25.1457 2.75452C25.2877 2.65513 25.4439 2.41375 25.5432 2.27177C25.5858 2.22917 25.6426 2.12978 25.5858 2.03039C25.5432 1.73222 25.1031 1.44825 24.6061 1.15008C24.5068 1.10749 24.4074 1.0081 24.308 0.951302C24.0666 0.752522 23.4845 0.312367 23.2289 0.553742C22.8881 0.851912 21.5677 2.11558 20.7867 2.9959C20.0768 3.80521 19.4947 4.71392 19.0261 5.67942L18.8273 6.11958C18.3872 7.09928 17.7056 8.60432 17.0241 10.2088L16.7259 10.9329C16.6833 11.0323 16.6834 11.0749 16.6266 11.1743C16.0444 12.4947 15.2635 14.1418 15.803 15.0221C16.0444 15.4054 16.5272 15.661 17.2655 15.7036C21.7948 16.087 22.9165 16.0018 25.5574 15.6468C26.0402 15.6042 26.4804 15.5048 26.9773 15.4054C27.1761 15.3628 27.3607 15.306 27.5594 15.306C27.7014 15.306 27.8008 15.306 27.957 15.3486C28.1984 15.448 28.2978 15.59 28.3972 15.7888L28.4965 15.9308L28.6385 15.7888C29.4621 14.8659 30.0442 13.8436 30.3992 12.7645C30.5411 12.1256 30.5979 11.5008 30.6405 11.2027V10.8619H30.6121V10.9045ZM14.085 10.9045C13.9856 10.6631 13.8436 10.4217 13.7868 10.1804C13.1053 8.51913 12.4238 7.01409 11.9836 6.03439L11.7848 5.63683C11.2453 4.51514 10.72 3.63483 10.0242 2.9533C9.2433 2.12978 7.93704 0.809318 7.58207 0.511148C7.2839 0.269773 6.70176 0.752522 6.51718 0.908706C6.41779 0.951302 6.3184 1.05069 6.21901 1.10749C5.73626 1.40566 5.29611 1.68963 5.23931 1.9878C5.23931 2.08719 5.23931 2.18658 5.28191 2.22917C5.3245 2.32856 5.42389 2.47055 5.52328 2.56994C5.56588 2.61253 5.62267 2.61253 5.66527 2.66933H5.72206C6.10542 3.01009 6.06283 3.10948 6.02023 3.06689C5.82145 2.9675 5.67947 2.9249 5.53748 2.9249H5.49489C5.01214 2.82551 4.85595 2.88231 4.77076 2.9249C4.67137 2.9675 4.67137 3.06689 4.67137 3.12368C4.67137 3.50704 5.11152 3.60643 5.65107 3.66322C5.79306 3.66322 5.94924 3.70582 6.09123 3.76262C6.23321 3.81941 6.3326 3.86201 6.48878 3.86201C6.68756 3.9046 6.92894 3.9614 7.11352 4.06079C7.51108 4.25957 8.03643 4.50094 8.47658 4.44415C8.57597 4.44415 8.67536 4.44415 8.77475 4.40155C9.07292 4.35896 9.3143 4.35896 9.49888 4.8843L9.54147 5.02629C9.78285 5.65102 10.3224 7.02828 10.223 8.43394C10.1236 9.8396 10.2656 11.7422 10.5212 12.4237L10.6632 12.7645L10.3224 12.6225C9.78285 12.3811 4.77076 10.1804 0.62478 10.8619H0.525391V11.586C0.667376 12.9491 1.24952 14.3121 2.32861 15.5332L2.428 15.6752L2.52739 15.5332C2.62678 15.3912 2.72617 15.3344 2.86815 15.235C3.20892 15.1357 3.4077 15.1783 3.84785 15.2776C4.3306 15.377 4.82755 15.4764 5.26771 15.519C6.73016 15.7178 7.70986 15.8172 9.01613 15.8172C10.1378 15.8172 11.5009 15.7178 13.5455 15.5758C14.2696 15.5332 14.7665 15.2776 15.0079 14.8943C15.5475 13.9714 14.8091 12.3669 14.1844 10.9897C14.1418 11.0465 14.1418 10.9613 14.085 10.9045Z" fill="white"/>
<path d="M28.1699 16.2715C28.0705 16.3141 28.028 16.4135 27.9286 16.4703L27.8718 16.5129C27.7724 16.5555 27.7298 16.6549 27.6304 16.7117C27.531 16.8111 27.4316 16.8537 27.3322 16.9531C27.2328 16.9957 27.1334 17.0951 27.0908 17.1519L27.0483 17.2087C26.9489 17.2513 26.8495 17.3506 26.8069 17.4074C26.8069 17.4074 26.7643 17.4074 26.7643 17.4642C26.6649 17.5068 26.5655 17.6062 26.4661 17.663C26.3667 17.7198 26.2673 17.805 26.1679 17.8618L26.1253 17.9044L25.8272 18.0464C25.8272 18.0464 25.7846 18.0464 25.7846 18.089C25.5432 18.2309 25.3444 18.3303 25.103 18.4865C25.0605 18.4865 25.0605 18.5291 25.0605 18.5291L24.7623 18.6711C24.7055 18.6711 24.7055 18.7137 24.7055 18.7137C24.4641 18.8131 24.2227 18.9551 23.9814 19.0545C23.9388 19.0545 23.9388 19.0971 23.882 19.0971C23.7826 19.1539 23.6832 19.1965 23.5838 19.1965C23.5412 19.1965 23.5412 19.239 23.4844 19.239C23.385 19.2816 23.243 19.3384 23.1011 19.381C22.9591 19.4236 22.8597 19.4804 22.7035 19.523C22.6609 19.523 22.6609 19.523 22.6041 19.5656C22.5047 19.6224 22.4053 19.6224 22.3059 19.665C22.2491 19.665 22.2491 19.7076 22.2065 19.7076C22.1072 19.7502 21.9652 19.7502 21.8658 19.807H21.8232C21.6812 19.8638 21.5818 19.9064 21.4256 19.9064C21.383 19.9064 21.383 19.9064 21.3262 19.949C21.2268 19.9916 21.1275 19.9916 20.9855 20.0484C20.9429 20.0484 20.8861 20.0484 20.8861 20.1052C20.7867 20.1478 20.6447 20.1478 20.5453 20.2045H20.4459C20.3039 20.2471 20.1478 20.2471 20.0058 20.3039H19.9064C19.807 20.3607 19.665 20.3607 19.5656 20.3607C19.523 20.3607 19.4662 20.3607 19.4236 20.4033C19.3242 20.4033 19.1822 20.4459 19.0829 20.4459H18.9835C18.8415 20.4885 18.6853 20.4885 18.5433 20.4885H18.4439C18.3445 20.4885 18.2026 20.5311 18.0464 20.5311H17.9044C17.805 20.5311 17.663 20.5879 17.5636 20.5879H17.4216C17.2796 20.5879 17.1235 20.6305 16.9815 20.6305H14.3547C14.2128 20.6305 14.0566 20.6305 13.9146 20.5879H13.872C13.73 20.5879 13.5738 20.5879 13.4318 20.5311H13.2898C13.1905 20.5311 13.0485 20.5311 12.9491 20.4885H12.8071C12.6651 20.4885 12.5089 20.4459 12.3669 20.4459H12.3243C12.1824 20.4459 12.083 20.4033 11.9268 20.4033H11.7848C11.6854 20.4033 11.5434 20.3607 11.444 20.3607H11.3588C11.2169 20.3039 11.0607 20.3039 10.9187 20.2613H10.8761C10.7767 20.2187 10.6347 20.2187 10.5353 20.162C10.4927 20.162 10.4359 20.162 10.3933 20.1194C10.294 20.0626 10.1946 20.0626 10.0952 20.02C10.0526 20.02 10.0526 20.02 9.99578 19.9774C9.8538 19.9348 9.69761 19.9348 9.59822 19.878H9.49883C9.39944 19.8212 9.25746 19.8212 9.15807 19.7786C9.10127 19.7786 9.05868 19.736 9.05868 19.736C8.95929 19.6934 8.8599 19.6934 8.76051 19.6366C8.71791 19.6366 8.71791 19.6366 8.66112 19.5798C8.51913 19.5372 8.41974 19.4804 8.26356 19.4378C8.22096 19.4378 8.22096 19.4378 8.16417 19.3952C8.06478 19.3384 7.96539 19.2958 7.866 19.2958C7.8234 19.2958 7.76661 19.2532 7.76661 19.2532C7.66722 19.2106 7.56783 19.1539 7.46844 19.1539C7.42584 19.1539 7.42585 19.1539 7.36905 19.0971C7.26966 19.0545 7.12768 18.9977 6.98569 18.9551C6.94309 18.9551 6.94309 18.9125 6.8863 18.9125L6.58813 18.7705C6.54553 18.7705 6.54553 18.7279 6.48874 18.7279L6.19057 18.5859C6.19057 18.5859 6.13378 18.5859 6.13378 18.5433C6.03439 18.5007 5.8924 18.4439 5.79301 18.3445C5.75042 18.3445 5.75042 18.3019 5.69362 18.3019C5.59423 18.2593 5.49484 18.2026 5.45225 18.16C5.39545 18.16 5.39545 18.1174 5.35286 18.1174L5.05469 17.9754C5.05469 17.9754 5.01209 17.9754 5.01209 17.9186C4.9127 17.876 4.81331 17.7766 4.71392 17.7198C4.65713 17.7198 4.65713 17.663 4.61453 17.663C4.51514 17.6204 4.47255 17.5636 4.37316 17.521C4.33056 17.521 4.33056 17.4784 4.27377 17.4784C4.17438 17.4216 4.07499 17.379 4.03239 17.2796C4.03239 17.2796 3.98979 17.2796 3.98979 17.237C3.8904 17.1803 3.79101 17.0951 3.69162 17.0383C3.64903 17.0383 3.64903 16.9957 3.64903 16.9957C3.60643 16.9389 3.50704 16.8963 3.45025 16.7969C3.40765 16.7969 3.40765 16.7543 3.35086 16.7543C3.25147 16.6975 3.20887 16.6123 3.10948 16.5555C3.01009 16.4561 2.9107 16.4135 2.86811 16.3141C2.82551 16.3141 2.82551 16.2715 2.82551 16.2715L2.58414 16.0302L2.54154 15.9734C2.64093 15.8314 2.68353 15.7746 2.74032 15.732C2.9391 15.6326 3.03849 15.6894 3.46445 15.7888C3.9472 15.8882 4.44415 15.9876 4.9269 16.0302C7.55363 16.3709 8.73211 16.4703 13.3182 16.0728C14.1986 15.9734 14.7807 15.6752 15.0789 15.1499C15.1215 15.1073 15.1215 15.0505 15.1783 14.9511C15.2351 14.9937 15.2351 15.0505 15.2776 15.1499C15.5758 15.6894 16.2006 15.9734 17.0383 16.0728C21.6244 16.4561 22.7887 16.3709 25.4154 16.0302C25.8982 15.9734 26.3951 15.8882 26.8779 15.7888C27.318 15.6894 27.4174 15.6894 27.602 15.732C27.7014 15.7888 27.744 15.8314 27.9002 16.1296C28.2267 16.2148 28.2267 16.2148 28.1699 16.2715C28.1699 16.2148 28.1699 16.2148 28.1699 16.2715ZM28.5675 6.27576L28.6669 6.37515C28.7663 6.47454 28.8089 6.57393 28.9083 6.67332C28.9509 6.73012 28.9509 6.73012 28.9509 6.77271C28.9935 6.81531 29.0502 6.8721 29.0502 6.9147C29.0928 6.97149 29.0928 6.97149 29.0928 7.01409C29.1496 7.05668 29.1922 7.11348 29.1922 7.15607C29.2348 7.21287 29.2348 7.21287 29.2348 7.25546C29.3342 7.45424 29.4762 7.59623 29.5756 7.79501C29.5756 7.8376 29.6324 7.83761 29.6324 7.8944C29.675 7.95119 29.675 7.99379 29.7318 8.03639C29.7318 8.07898 29.7744 8.07898 29.7744 8.13577C29.817 8.19257 29.817 8.23516 29.8738 8.27776C29.8738 8.32035 29.9164 8.32036 29.9164 8.37715C29.959 8.47654 30.0157 8.61852 30.0583 8.71791C30.0583 8.76051 30.0583 8.76051 30.1151 8.76051C30.1151 8.80311 30.1577 8.8599 30.1577 8.9025C30.1577 8.94509 30.2003 9.00189 30.2003 9.00189C30.2003 9.04448 30.2429 9.10128 30.2429 9.14387C30.2429 9.18647 30.2855 9.24326 30.2855 9.24326C30.2855 9.28586 30.3423 9.34265 30.3423 9.38525C30.3423 9.42784 30.3423 9.48464 30.3849 9.48464C30.4275 9.58403 30.4275 9.68342 30.4275 9.78281C30.4275 9.8254 30.4275 9.8822 30.4701 9.8822C30.4701 9.92479 30.4701 9.98159 30.5127 10.0242V10.3224C29.1496 10.1236 27.0057 10.1236 23.9388 10.9613C22.8739 11.4014 21.8942 11.6854 20.8719 12.1256C21.0707 11.1459 21.1133 9.64082 21.0139 8.51914C20.9145 7.25546 21.4114 5.99179 21.6954 5.29606L21.738 5.15408C21.7948 5.05469 21.7948 4.9553 21.88 4.9127H22.022C22.1214 4.9127 22.2633 4.9553 22.3627 4.9553C23.0017 5.01209 23.7258 4.61453 23.9246 4.51514C24.0666 4.41575 24.2653 4.37316 24.4641 4.31636C24.6061 4.27377 24.7623 4.21697 24.9469 4.17438C25.0463 4.13178 25.1456 4.13178 25.2876 4.13178C25.4296 4.13178 25.6284 4.08918 25.8272 4.03239C26.9063 4.71392 27.8292 5.45225 28.5675 6.27576ZM23.3992 0.624736C23.5412 0.525347 23.882 0.667334 24.3221 1.0081C24.4215 1.10749 24.5209 1.15008 24.6203 1.20688C24.9185 1.40566 25.5006 1.74642 25.5432 1.9878C25.5432 2.03039 25.5432 2.08719 25.5006 2.12978V2.17238C25.4012 2.31437 25.2592 2.56994 25.1598 2.61253L25.0605 2.71193C24.8617 2.91071 24.5777 3.10948 24.4783 3.10948C24.1801 3.06689 23.9956 3.0101 23.7542 2.91071C23.8962 2.32856 24.0949 2.47055 24.4783 2.66933C24.4783 2.56994 24.4357 2.52734 24.4357 2.42796L24.7339 2.28597L24.3931 2.24337C24.3505 2.002 24.3505 1.80322 24.3505 1.56184C24.2511 1.70383 24.2511 1.86001 24.2085 1.9594C24.1659 2.05879 24.0666 2.15818 24.0098 2.20078L23.811 2.002C23.7116 1.90261 23.5696 1.80322 23.4702 1.76062C23.4702 1.80322 23.4276 1.80322 23.4276 1.80322C23.7684 2.28597 23.7684 2.38536 23.385 2.82551C23.0443 3.20887 22.7035 3.50705 22.3627 3.84781C22.6041 3.9898 22.9023 3.89041 23.243 3.54964C23.6832 3.06689 23.6832 3.06689 24.2653 3.30826L24.3647 3.35086C24.6061 3.45025 24.7481 3.30827 24.9895 3.20888C25.1314 3.16628 25.3302 3.06689 25.4722 3.06689H25.529C25.8698 3.0101 26.0685 3.0101 26.1111 3.06689C26.1111 3.06689 26.1537 3.10948 26.1537 3.16628C26.1537 3.40765 25.955 3.50705 25.3302 3.56384C25.1882 3.56384 25.0321 3.60643 24.8475 3.66323C24.7055 3.70582 24.6061 3.76262 24.4499 3.76262C24.2085 3.81941 24.0098 3.86201 23.8252 4.004C23.4276 4.20278 22.9449 4.40155 22.5615 4.40155C22.4621 4.40155 22.3627 4.40156 22.3201 4.35896C21.9794 4.31636 21.6954 4.31636 21.4398 4.9411L21.3972 5.08308C21.1558 5.76461 20.6163 7.12768 20.6731 8.54753C20.7725 9.96739 20.6163 11.87 20.3749 12.4947L20.0342 13.1337L20.6731 12.8355C20.7157 12.7787 26.2815 10.3508 30.6121 11.0323V11.2311C30.5695 11.6286 30.5127 12.2108 30.3707 12.7929C30.0725 13.872 29.4904 14.8943 28.6669 15.7746C28.5675 15.5332 28.4255 15.377 28.1273 15.2919C27.9854 15.2351 27.8292 15.1925 27.6872 15.1925C27.4884 15.1925 27.247 15.2351 27.0625 15.2919C26.5797 15.3912 26.1395 15.4906 25.6426 15.5332C23.0585 15.874 21.8942 15.9734 17.3506 15.5758C16.6691 15.5332 16.229 15.2777 15.9876 14.9369C15.5048 14.1134 16.2289 12.4947 16.8111 11.1885C16.9531 10.8477 17.1093 10.5069 17.2512 10.2088C17.9754 8.40555 18.7137 6.80111 19.1539 5.864L19.2532 5.66522C19.7928 4.54354 20.3181 3.72002 20.9571 2.9817C21.738 2.18658 23.0585 0.908708 23.3992 0.624736ZM15.6042 1.50505C17.5494 1.50505 19.4094 1.74642 21.0565 2.18658C20.8577 2.38536 20.7157 2.52735 20.5737 2.72613C19.8212 3.56384 19.2106 4.51514 18.7705 5.55164L18.6711 5.75042C18.2309 6.73012 17.45 8.33455 16.7685 10.1378C16.6691 10.4359 16.5271 10.7199 16.3709 11.0607C16.0302 11.7848 15.6894 12.5799 15.4906 13.3466C15.2918 12.5657 14.9085 11.7848 14.6103 11.0607L14.2128 10.1378C13.4886 8.33455 12.7503 6.73012 12.3101 5.75042L12.2108 5.55164C11.6712 4.38736 11.0891 3.50705 10.4075 2.72613C10.2656 2.58414 10.1094 2.42795 9.96739 2.24337C11.657 1.74642 13.5454 1.50505 15.6042 1.50505ZM4.8701 3.10948C4.9127 3.06689 5.16827 3.06689 5.45225 3.10948H5.55164L5.99179 3.25147C6.23317 3.39346 6.37515 3.49285 6.61653 3.39346C6.65912 3.39346 6.71592 3.35086 6.71592 3.35086C7.29806 3.15208 7.29806 3.15208 7.73821 3.59223C8.07898 3.9756 8.36295 4.03239 8.61852 3.8904C8.27776 3.54964 7.8944 3.20888 7.59623 2.86811C7.21287 2.42796 7.21287 2.28597 7.55363 1.84581C7.55363 1.78902 7.51104 1.78902 7.51104 1.78902C7.41165 1.88841 7.26966 1.93101 7.17027 2.0304L6.97149 2.22917C6.8721 2.12978 6.77271 2.08719 6.77271 1.9878C6.73012 1.88841 6.73012 1.74642 6.63073 1.60444C6.63073 1.80322 6.58813 2.04459 6.58813 2.28597L6.24736 2.38536L6.54553 2.52734L6.50294 2.72613C6.8437 2.48475 7.08508 2.34276 7.22707 2.9675C6.98569 3.06689 6.74431 3.06689 6.50294 3.16628C6.40355 3.20887 6.10538 2.9675 5.864 2.76872C5.864 2.72612 5.82141 2.72613 5.82141 2.72613L5.67942 2.58414C5.58003 2.48475 5.53744 2.34276 5.48064 2.28597V2.24337C5.43805 2.20078 5.43805 2.14398 5.43805 2.10139C5.48064 1.86001 6.07698 1.46245 6.36095 1.32047C6.46034 1.27787 6.55973 1.17848 6.65912 1.12169C7.05668 0.780921 7.44004 0.582142 7.58203 0.724128C7.92279 1.0223 9.18647 2.28597 10.0242 3.10948C10.6631 3.79101 11.1885 4.67132 11.728 5.79301L11.8274 5.99179C12.2676 6.97149 13.0485 8.57593 13.73 10.3224C13.8294 10.6205 13.9714 10.9613 14.1702 11.3021C14.7523 12.6225 15.4906 14.227 14.9937 15.0505C14.7949 15.4338 14.3121 15.6326 13.6306 15.6894C9.10127 16.087 7.97959 15.9876 5.33866 15.6468C4.85591 15.6042 4.41575 15.5048 3.9188 15.4054C3.47865 15.306 3.23727 15.2635 2.85391 15.3628C2.65513 15.4054 2.55574 15.5616 2.45635 15.7036C1.47665 14.5393 0.851913 13.2189 0.695729 11.799V11.1601C5.04049 10.4359 10.294 12.8639 10.3507 12.9207L10.9897 13.2189L10.7483 12.5799C10.5069 11.941 10.3507 10.0384 10.4501 8.63272C10.5495 7.22707 10.01 5.84981 9.72601 5.16827L9.68342 5.02629C9.44204 4.38735 9.14387 4.38735 8.80311 4.44415C8.70372 4.44415 8.60433 4.48675 8.56173 4.48675C8.16417 4.48675 7.63882 4.28796 7.29806 4.10338C7.09928 4.00399 6.8579 3.90461 6.65912 3.86201C6.51714 3.81941 6.41775 3.81941 6.27576 3.76262C6.13378 3.72002 5.97759 3.66323 5.79301 3.66323C5.15408 3.56384 4.96949 3.46445 4.96949 3.26567C4.82751 3.15208 4.82751 3.10948 4.8701 3.10948ZM5.26766 4.07499C5.36705 4.11758 5.50904 4.11758 5.60843 4.11758C5.70782 4.11758 5.84981 4.16018 5.9492 4.16018C6.09118 4.20277 6.24736 4.25957 6.43195 4.30216C6.63073 4.34476 6.77271 4.40156 6.97149 4.50095C7.17027 4.60034 7.8944 4.98369 8.53333 4.9411C8.63272 4.9411 8.77471 4.9411 8.8741 4.8985H9.01608C9.01608 4.8985 9.05868 4.9411 9.15807 5.13988L9.20067 5.28187C9.44204 5.9634 9.98159 7.22707 9.8822 8.50494C9.78281 9.62662 9.8254 11.1317 10.0242 12.1114C8.56173 11.4724 4.37316 9.96739 0.667332 10.5495C0.709928 10.1662 0.766722 9.8254 0.866112 9.42784V9.38525C0.866112 9.32845 0.908708 9.28586 0.908708 9.24326C0.908708 9.20067 0.951303 9.14387 0.951303 9.10128V9.05868C1.05069 8.76051 1.19268 8.43394 1.34886 8.13577C1.34886 8.13577 1.34886 8.09318 1.39146 8.09318C1.39146 8.09318 1.39146 8.05058 1.43405 8.05058C1.47665 8.00799 1.47665 7.95119 1.53344 7.9086C2.24337 6.41775 3.56384 5.15408 5.26766 4.07499ZM26.4661 3.73422C26.5655 3.59223 26.6649 3.43605 26.6649 3.25147C26.6649 3.05269 26.5655 2.86811 26.4235 2.71193C26.2815 2.61254 26.1253 2.56994 25.9408 2.56994C25.9408 2.56994 25.9408 2.51315 25.9976 2.51315C26.0969 2.37116 26.1395 2.17238 26.0969 1.9736C25.9976 1.49085 25.3728 1.09329 24.9327 0.809318C24.8333 0.766722 24.7339 0.709928 24.6913 0.667333C23.811 -0.0567939 23.3282 0.0283987 23.0869 0.227179C22.8455 0.425958 22.2633 1.0081 21.6244 1.64703C19.7644 1.16428 17.7198 0.866114 15.6326 0.866114C13.446 0.866114 11.3446 1.16428 9.44204 1.68963C8.80311 1.05069 8.17837 0.468554 7.92279 0.227179C7.68142 0.0283987 7.14187 -0.113588 6.31836 0.667333C6.27576 0.709928 6.17637 0.766722 6.07698 0.809318C5.63683 1.05069 4.99789 1.44825 4.9127 1.9736C4.8701 2.17238 4.9127 2.37116 5.01209 2.51315C5.01209 2.51315 5.01209 2.56994 5.06888 2.56994C4.8701 2.56994 4.72812 2.61254 4.58613 2.71193C4.44415 2.85391 4.34476 3.01009 4.34476 3.25147C4.34476 3.54964 4.44415 3.69163 4.58613 3.83361C1.76062 5.63683 0 8.22097 0 11.0039V11.6428C0 17.592 6.09118 22.4195 15.6042 22.4195C25.1598 22.4195 31.2084 17.592 31.2084 11.6428V11.0607C31.1942 8.17837 29.391 5.59423 26.4661 3.73422Z" fill="#0A0080"/>
</svg>
