<svg width="32" height="32" viewBox="0 0 32 32" fill="none" xmlns="http://www.w3.org/2000/svg">
<g id="Icons/money">
<path id="Vector" d="M17.8459 17.4359C16.9143 17.4359 16.1259 17.1132 15.4806 16.4679C14.8353 15.8226 14.5127 15.0342 14.5127 14.1026C14.5127 13.171 14.8353 12.3825 15.4806 11.7372C16.1259 11.0919 16.9143 10.7693 17.8459 10.7693C18.7775 10.7693 19.566 11.0919 20.2113 11.7372C20.8566 12.3825 21.1792 13.171 21.1792 14.1026C21.1792 15.0342 20.8566 15.8226 20.2113 16.4679C19.566 17.1132 18.7775 17.4359 17.8459 17.4359ZM8.07676 22.0512C7.55454 22.0512 7.10347 21.8613 6.72356 21.4814C6.34365 21.1015 6.15369 20.6504 6.15369 20.1282V8.07697C6.15369 7.55475 6.34365 7.10368 6.72356 6.72377C7.10347 6.34386 7.55454 6.1539 8.07676 6.1539H27.6151C28.1373 6.1539 28.5884 6.34386 28.9683 6.72377C29.3482 7.10368 29.5382 7.55475 29.5382 8.07697V20.1282C29.5382 20.6504 29.3482 21.1015 28.9683 21.4814C28.5884 21.8613 28.1373 22.0512 27.6151 22.0512H8.07676ZM10.5639 20.5385H25.128C25.128 19.7333 25.4101 19.0491 25.9745 18.4859C26.5388 17.9227 27.2224 17.641 28.0254 17.641V10.5641C27.2203 10.5641 26.5361 10.2819 25.9729 9.71763C25.4096 9.15332 25.128 8.46968 25.128 7.6667H10.5639C10.5639 8.47181 10.2817 9.15599 9.71743 9.71923C9.15311 10.2825 8.46947 10.5641 7.66649 10.5641V17.641C8.4716 17.641 9.15578 17.9232 9.71903 18.4875C10.2823 19.0518 10.5639 19.7355 10.5639 20.5385ZM25.5638 25.7435H4.38449C3.86227 25.7435 3.4112 25.5536 3.03129 25.1737C2.65138 24.7937 2.46143 24.3427 2.46143 23.8205V10.1283H3.97419V23.8205C3.97419 23.923 4.01694 24.017 4.10243 24.1025C4.18789 24.188 4.28191 24.2307 4.38449 24.2307H25.5638V25.7435ZM8.07676 20.5385H7.66649V7.6667H8.07676C7.96565 7.6667 7.86949 7.7073 7.78829 7.7885C7.70709 7.8697 7.66649 7.96586 7.66649 8.07697V20.1282C7.66649 20.2393 7.70709 20.3354 7.78829 20.4166C7.86949 20.4979 7.96565 20.5385 8.07676 20.5385Z" fill="#90A3BF"/>
</g>
</svg>
