<svg width="27" height="26" viewBox="0 0 27 26" fill="none" xmlns="http://www.w3.org/2000/svg">
<path d="M12.6256 22.2463H14.0871V20.577C15.2973 20.4813 16.3059 20.1095 17.1127 19.4617C17.9196 18.8138 18.323 17.9061 18.323 16.7386C18.323 15.6565 18.0072 14.7813 17.3755 14.113C16.7439 13.4446 15.6529 12.7967 14.1024 12.1694C12.7281 11.6275 11.7862 11.1497 11.2768 10.736C10.7674 10.3224 10.5127 9.75143 10.5127 9.02323C10.5127 8.31723 10.7819 7.74286 11.3204 7.30013C11.8589 6.8574 12.5743 6.63603 13.4666 6.63603C14.1332 6.63603 14.711 6.78731 15.1999 7.08986C15.6888 7.39242 16.1042 7.82917 16.4461 8.40013L17.6999 7.81296C17.3221 7.10356 16.8307 6.54373 16.2255 6.13346C15.6204 5.72322 14.9298 5.4822 14.1537 5.4104V3.7745H12.6922V5.4104C11.5418 5.56595 10.6495 5.97621 10.0153 6.64116C9.38113 7.30612 9.06404 8.10014 9.06404 9.02323C9.06404 10.0608 9.38669 10.8848 10.032 11.495C10.6773 12.1052 11.6965 12.6881 13.0897 13.2437C14.57 13.8488 15.573 14.3929 16.0986 14.8758C16.6243 15.3587 16.8871 15.9796 16.8871 16.7386C16.8871 17.5608 16.5627 18.1929 15.914 18.6348C15.2653 19.0766 14.5008 19.2976 13.6204 19.2976C12.7794 19.2976 12.0221 19.0617 11.3486 18.5899C10.6751 18.1181 10.1794 17.4685 9.86144 16.6412L8.53328 17.1181C8.99139 18.0719 9.55292 18.8155 10.2179 19.3488C10.8828 19.8822 11.6854 20.2693 12.6256 20.5104V22.2463ZM13.3999 25.6668C11.6632 25.6668 10.0264 25.3339 8.48968 24.668C6.95292 24.0022 5.60891 23.0937 4.45764 21.9424C3.30635 20.7911 2.39781 19.4471 1.73201 17.9104C1.06619 16.3736 0.733276 14.7369 0.733276 13.0001C0.733276 11.2497 1.06619 9.60399 1.73201 8.06296C2.39781 6.52194 3.30635 5.18135 4.45764 4.0412C5.60891 2.90102 6.95292 1.99803 8.48968 1.33223C10.0264 0.666407 11.6632 0.333496 13.3999 0.333496C15.1503 0.333496 16.7961 0.666407 18.3371 1.33223C19.8781 1.99803 21.2187 2.90102 22.3588 4.0412C23.499 5.18135 24.402 6.52194 25.0678 8.06296C25.7336 9.60399 26.0665 11.2497 26.0665 13.0001C26.0665 14.7369 25.7336 16.3736 25.0678 17.9104C24.402 19.4471 23.499 20.7911 22.3588 21.9424C21.2187 23.0937 19.8781 24.0022 18.3371 24.668C16.7961 25.3339 15.1503 25.6668 13.3999 25.6668ZM13.3999 24.154C16.5042 24.154 19.1392 23.0676 21.305 20.895C23.4708 18.7224 24.5537 16.0907 24.5537 13.0001C24.5537 9.89586 23.4708 7.26082 21.305 5.095C19.1392 2.9292 16.5042 1.8463 13.3999 1.8463C10.3093 1.8463 7.67769 2.9292 5.50504 5.095C3.3324 7.26082 2.24608 9.89586 2.24608 13.0001C2.24608 16.0907 3.3324 18.7224 5.50504 20.895C7.67769 23.0676 10.3093 24.154 13.3999 24.154Z" fill="#90A3BF"/>
</svg>
