<svg width="20" height="20" viewBox="0 0 20 20" fill="none" xmlns="http://www.w3.org/2000/svg">
<path d="M8.01734 19.5L7.56541 16.4942C7.22311 16.3775 6.85452 16.208 6.45964 15.9856C6.06477 15.7631 5.72439 15.5275 5.43849 15.2788L2.64234 16.5519L0.644287 13.0192L3.17121 11.1596C3.13788 10.984 3.11384 10.7923 3.09909 10.5846C3.08434 10.3769 3.07696 10.1853 3.07696 10.0096C3.07696 9.8404 3.08434 9.65193 3.09909 9.44423C3.11384 9.23653 3.13788 9.03525 3.17121 8.84038L0.644287 6.97116L2.64234 3.46736L5.42886 4.72121C5.734 4.47247 6.07759 4.23849 6.45964 4.01926C6.8417 3.80002 7.2071 3.63721 7.55581 3.53081L8.01734 0.500031H11.9827L12.4346 3.51541C12.8026 3.65131 13.1705 3.8199 13.5385 4.02118C13.9064 4.22246 14.2378 4.45581 14.5327 4.72121L17.3673 3.46736L19.3557 6.97116L16.7904 8.82886C16.8365 9.02757 16.8654 9.22757 16.8769 9.42886C16.8884 9.63014 16.8942 9.82052 16.8942 10C16.8942 10.1731 16.8868 10.3577 16.8721 10.5539C16.8574 10.75 16.8301 10.9539 16.7904 11.1654L19.3461 13.0192L17.3481 16.5519L14.5327 15.2692C14.2212 15.5307 13.8849 15.7721 13.524 15.9933C13.1631 16.2144 12.8 16.3782 12.4346 16.4846L11.9827 19.5H8.01734ZM9.97116 12.8173C10.7558 12.8173 11.4215 12.5439 11.9683 11.9971C12.515 11.4503 12.7884 10.7846 12.7884 10C12.7884 9.21541 12.515 8.54971 11.9683 8.00291C11.4215 7.45612 10.7558 7.18273 9.97116 7.18273C9.19296 7.18273 8.52887 7.45612 7.97889 8.00291C7.42889 8.54971 7.15389 9.21541 7.15389 10C7.15389 10.7846 7.42889 11.4503 7.97889 11.9971C8.52887 12.5439 9.19296 12.8173 9.97116 12.8173ZM9.97116 11.6827C9.50706 11.6827 9.11059 11.5183 8.78174 11.1894C8.4529 10.8606 8.28849 10.4641 8.28849 10C8.28849 9.53591 8.4529 9.13943 8.78174 8.81058C9.11059 8.48175 9.50706 8.31733 9.97116 8.31733C10.4417 8.31733 10.8398 8.48175 11.1654 8.81058C11.491 9.13943 11.6539 9.53591 11.6539 10C11.6539 10.4641 11.491 10.8606 11.1654 11.1894C10.8398 11.5183 10.4417 11.6827 9.97116 11.6827ZM8.92886 18.3654H11.0615L11.4212 15.575C11.9519 15.4417 12.4471 15.243 12.9067 14.9789C13.3664 14.7147 13.8058 14.3795 14.225 13.9731L16.8365 15.1039L17.8365 13.3327L15.525 11.6269C15.5917 11.3308 15.6442 11.0516 15.6827 10.7894C15.7212 10.5272 15.7404 10.2641 15.7404 10C15.7404 9.72309 15.7237 9.45675 15.6904 9.20098C15.6571 8.94521 15.6019 8.67566 15.525 8.39233L17.8558 6.66733L16.8558 4.89616L14.2154 6.02693C13.8641 5.63206 13.4404 5.28399 12.9442 4.98271C12.4481 4.68142 11.9372 4.49552 11.4115 4.42501L11.0712 1.63463H8.92886L8.59809 4.41541C8.04425 4.52566 7.53432 4.71443 7.06829 4.98173C6.60227 5.24905 6.16798 5.59425 5.76541 6.01733L3.14426 4.89616L2.14426 6.66733L4.45579 8.36348C4.3827 8.62758 4.32694 8.89552 4.28849 9.16731C4.25002 9.43911 4.23079 9.71988 4.23079 10.0096C4.23079 10.2865 4.25002 10.5577 4.28849 10.8231C4.32694 11.0885 4.3795 11.3564 4.44616 11.6269L2.14426 13.3327L3.14426 15.1039L5.75579 13.9827C6.15579 14.3891 6.5904 14.7244 7.05964 14.9885C7.52887 15.2526 8.03849 15.4513 8.58849 15.5846L8.92886 18.3654Z" fill="#90A3BF"/>
</svg>
