<svg width="20" height="16" viewBox="0 0 20 16" fill="none" xmlns="http://www.w3.org/2000/svg">
<path d="M8.60382 11.3461C8.96281 11.7051 9.4221 11.8721 9.9817 11.8471C10.5413 11.8221 10.95 11.6218 11.2077 11.2461L16.5788 3.44038L8.75383 8.7923C8.37177 9.05383 8.15992 9.45351 8.11825 9.99133C8.07658 10.5291 8.23844 10.9807 8.60382 11.3461ZM2.8769 15.5C2.64742 15.5 2.433 15.4419 2.23365 15.3259C2.0343 15.2099 1.88077 15.0506 1.77307 14.848C1.35897 14.1057 1.04328 13.3269 0.825975 12.5115C0.608658 11.6961 0.5 10.8641 0.5 10.0154C0.5 8.70253 0.749683 7.46825 1.24905 6.3125C1.7484 5.15673 2.42564 4.14872 3.28077 3.28845C4.13589 2.4282 5.13877 1.7484 6.28942 1.24905C7.44006 0.749683 8.66345 0.5 9.9596 0.5C11.2724 0.5 12.5109 0.748083 13.675 1.24425C14.8391 1.7404 15.8528 2.4186 16.7163 3.27885C17.5798 4.1391 18.2612 5.14551 18.7605 6.29808C19.2599 7.45063 19.5064 8.68331 19.5 9.99613C19.5 10.8513 19.3964 11.6939 19.1894 12.524C18.9823 13.3541 18.6698 14.1416 18.2519 14.8865C18.1339 15.0891 17.9721 15.2419 17.7663 15.3451C17.5605 15.4483 17.3461 15.5 17.1231 15.5H2.8769Z" fill="#90A3BF"/>
</svg>
