<svg width="26" height="26" viewBox="0 0 26 26" fill="none" xmlns="http://www.w3.org/2000/svg">
<path d="M4.93333 20.5642C6.26495 19.6463 7.58972 18.9348 8.90766 18.4296C10.2256 17.9245 11.6564 17.6719 13.2 17.6719C14.7435 17.6719 16.1777 17.9245 17.5025 18.4296C18.8273 18.9348 20.1555 19.6463 21.4871 20.5642C22.4563 19.4412 23.1764 18.2553 23.6474 17.0067C24.1183 15.7581 24.3538 14.4226 24.3538 13.0001C24.3538 9.85484 23.2812 7.20954 21.1359 5.06423C18.9905 2.91894 16.3452 1.8463 13.2 1.8463C10.0547 1.8463 7.40937 2.91894 5.26406 5.06423C3.11877 7.20954 2.04613 9.85484 2.04613 13.0001C2.04613 14.4226 2.28501 15.7581 2.76279 17.0067C3.24057 18.2553 3.96408 19.4412 4.93333 20.5642ZM13.1927 13.7565C11.9941 13.7565 10.9859 13.3451 10.1679 12.5224C9.34997 11.6996 8.94099 10.6889 8.94099 9.49033C8.94099 8.29175 9.35238 7.28349 10.1752 6.46553C10.9979 5.6476 12.0086 5.23863 13.2072 5.23863C14.4058 5.23863 15.4141 5.65001 16.232 6.47276C17.0499 7.29552 17.4589 8.3062 17.4589 9.5048C17.4589 10.7034 17.0475 11.7117 16.2248 12.5296C15.402 13.3476 14.3913 13.7565 13.1927 13.7565ZM13.2156 25.6668C11.4599 25.6668 9.81274 25.336 8.27416 24.6744C6.7356 24.0129 5.39159 23.1065 4.24213 21.9552C3.09268 20.8039 2.18719 19.4625 1.52566 17.931C0.864103 16.3994 0.533325 14.755 0.533325 12.9977C0.533325 11.2403 0.864103 9.59672 1.52566 8.06683C2.18719 6.53692 3.09359 5.19632 4.24486 4.04503C5.39615 2.89376 6.73756 1.98736 8.26909 1.32583C9.80065 0.664274 11.4451 0.333496 13.2024 0.333496C14.9598 0.333496 16.6034 0.664274 18.1333 1.32583C19.6632 1.98736 21.0038 2.89376 22.1551 4.04503C23.3063 5.19632 24.2127 6.53727 24.8743 8.0679C25.5358 9.59852 25.8666 11.2374 25.8666 12.9845C25.8666 14.7402 25.5358 16.3874 24.8743 17.9259C24.2127 19.4645 23.3063 20.8085 22.1551 21.958C21.0038 23.1074 19.6628 24.0129 18.1322 24.6744C16.6016 25.336 14.9627 25.6668 13.2156 25.6668ZM13.2 24.154C14.4393 24.154 15.6615 23.957 16.8666 23.5629C18.0718 23.1689 19.2068 22.5317 20.2718 21.6514C19.2068 20.8685 18.079 20.2616 16.8884 19.8309C15.6978 19.4001 14.4683 19.1847 13.2 19.1847C11.9316 19.1847 10.7 19.398 9.50509 19.8245C8.3102 20.251 7.18884 20.8599 6.14099 21.6514C7.19739 22.5317 8.32816 23.1689 9.53329 23.5629C10.7384 23.957 11.9606 24.154 13.2 24.154ZM13.2018 12.2437C13.9988 12.2437 14.6555 11.985 15.1718 11.4676C15.688 10.9502 15.9461 10.2929 15.9461 9.4958C15.9461 8.69869 15.6874 8.04201 15.17 7.52576C14.6525 7.00952 13.9953 6.7514 13.1982 6.7514C12.4011 6.7514 11.7444 7.01012 11.2282 7.52756C10.7119 8.04499 10.4538 8.70225 10.4538 9.49936C10.4538 10.2965 10.7125 10.9531 11.23 11.4694C11.7474 11.9856 12.4046 12.2437 13.2018 12.2437Z" fill="#90A3BF"/>
</svg>
