<svg width="180" height="168" viewBox="0 0 180 168" fill="none" xmlns="http://www.w3.org/2000/svg">
<path d="M59.4018 17.0137C61.0259 16.3249 62.6253 15.5696 64.279 14.957C71.2326 12.3856 78.4465 11.0045 85.8333 10.6072C94.2883 10.1525 102.593 11.1678 110.705 13.6178C119.651 16.32 127.799 20.5675 135.143 26.3423C141.507 31.3471 146.889 37.2547 151.319 44.0254C151.618 44.4824 152.088 44.8932 151.692 45.5911C151.531 45.8768 151.689 46.345 151.703 46.8094C152.124 46.7232 152.472 46.6523 152.94 46.5558C153.972 48.4804 155.013 50.4206 156.11 52.4677C155.085 52.6113 154.223 52.7763 153.357 52.8224C153.133 52.835 152.806 52.5272 152.667 52.2852C151.288 49.8712 150.052 47.367 148.546 45.0373C147.255 43.0398 145.715 41.1933 144.199 39.3503C137.041 30.6433 128.281 24.0213 117.968 19.4637C109.868 15.886 101.384 13.9272 92.5305 13.5458C87.6708 13.3363 82.861 13.7229 78.0498 14.3916C74.8513 14.8362 71.7554 15.6679 68.7068 16.6296C65.6535 17.5938 62.6307 18.7261 59.7292 20.0756C56.8055 21.4368 53.9909 23.0628 51.2294 24.7378C47.5148 26.9939 44.1744 29.7563 40.9876 32.7108C38.8707 34.6731 36.9303 36.7952 35.1183 39.0274C34.5091 39.7791 33.9608 40.1617 33.0302 39.7504C32.8841 39.6854 32.7053 39.6917 32.4989 39.6591C32.0421 40.3877 32.4936 41.0779 32.5327 41.7678C32.5434 41.9645 32.5695 42.2103 32.47 42.3541C31.5704 43.6794 30.6443 44.9863 29.6748 46.3744C29.0488 45.8659 28.4955 46.2133 28.2246 46.7433C28.0957 46.9937 28.4831 47.5084 28.6948 48.0511C26.3327 52.0604 24.1706 56.4209 22.6934 61.0751C21.7517 64.0431 21.0217 67.0806 20.2177 70.0909C20.0869 70.5825 19.7737 70.8006 19.4311 71.1373C18.6695 71.8881 17.7608 71.5712 16.8153 72.0009C17.0983 70.5619 17.324 69.2506 17.6185 67.9536C19.8489 58.1453 23.9043 49.1577 29.798 40.9993C34.0466 35.1164 39.0648 29.9833 44.8247 25.5716C45.1319 25.3355 45.4707 25.1053 45.833 24.9811C46.5447 24.7379 47.3648 24.6811 47.4639 23.6729C47.4727 23.5777 47.6699 23.4954 47.7853 23.416C51.3237 21.0017 55.0418 18.904 58.9396 17.1211C59.0907 17.0521 59.263 17.0246 59.4242 16.9781C59.3933 17.0508 59.3537 17.1212 59.3336 17.1975C59.2624 17.4569 59.1982 17.7171 59.1305 17.9777C59.3898 18.008 59.7029 18.1419 59.8963 18.0447C60.1757 17.9031 60.3678 17.5908 60.5976 17.3519C60.4167 17.1979 60.2554 16.9761 60.0478 16.9113C59.8584 16.8541 59.6166 16.9716 59.3977 17.0091L59.4018 17.0137ZM51.1667 23.9778C51.7412 23.3437 52.3252 22.7169 52.8631 22.0539C52.8953 22.0152 52.5818 21.5397 52.383 21.5009C51.8235 21.3913 50.4552 22.3655 50.2683 22.9213C50.0516 23.5684 50.3296 23.9139 51.1667 23.9778ZM64.7604 16.2717C65.7229 16.7759 66.6224 16.7114 67.1483 16.0124C67.3401 15.7584 67.4117 15.2597 67.293 14.9756C67.2114 14.7854 66.6847 14.6661 66.3825 14.7068C65.5212 14.824 65.047 15.4286 64.7604 16.2717ZM18.7966 67.1719C19.7098 67.3993 20.336 67.1322 20.3561 66.4375C20.3651 66.1611 20.0441 65.7175 19.7759 65.6235C19.3368 65.4697 18.8386 66.281 18.7966 67.1719ZM82.1541 13.0907C82.3789 12.7312 82.5859 12.5125 82.636 12.2612C82.6539 12.1698 82.2421 11.8585 82.1184 11.9031C81.874 11.9903 81.6943 12.2564 81.4885 12.4475C81.6689 12.6222 81.8492 12.7968 82.1541 13.0907Z" fill="#C5F466"/>
<path d="M76.6125 156.45C76.9767 156.084 77.2638 155.851 77.4796 155.561C77.6321 155.357 77.6837 155.08 77.781 154.836C77.481 154.722 77.1372 154.456 76.8905 154.526C76.4236 154.662 75.9415 154.919 75.5919 155.255C74.8731 155.945 74.1526 156.041 73.1761 155.814C63.7578 153.623 55.0886 149.768 47.1788 144.225C42.5461 140.978 38.3332 137.251 34.5745 133.019C34.5014 132.937 34.4402 132.843 34.4108 132.805C35.1733 132.206 35.9207 131.621 36.6198 131.07C38.681 133.044 40.7746 135.211 43.0375 137.183C53.2008 146.04 64.9627 151.551 78.271 153.761C79.1313 153.903 80.0043 153.979 80.8624 154.131C81.3764 154.221 81.9864 154.033 82.2027 154.9C82.3137 155.347 82.9369 155.156 83.3456 154.839C83.5892 154.649 83.9414 154.465 84.2315 154.484C89.7391 154.859 95.2153 154.635 100.672 153.798C101 153.747 101.384 153.913 101.714 154.046C102.275 154.272 102.729 154.311 103.014 153.649C103.074 153.509 103.252 153.363 103.402 153.325C104.987 152.927 106.578 152.548 108.168 152.174C108.325 152.136 108.532 152.102 108.657 152.172C109.165 152.46 109.409 152.219 109.789 151.865C110.151 151.529 110.736 151.412 111.239 151.252C119.322 148.681 126.682 144.754 133.329 139.501C142.587 132.183 149.561 123.098 154.34 112.327C154.899 111.069 155.39 109.782 155.938 108.442C156.592 108.698 157.127 108.462 157.231 107.781C157.276 107.483 156.893 107.12 156.683 106.751C157.447 103.613 158.243 100.312 159.07 97.0196C159.121 96.8212 159.409 96.586 159.622 96.5425C160.421 96.3828 161.234 96.298 162.229 96.1587C161.921 97.7274 161.635 99.1891 161.337 100.707C160.863 100.632 160.46 100.568 159.979 100.49C159.808 101.379 159.844 102.146 160.398 102.87C160.545 103.063 160.608 103.423 160.543 103.663C158.682 110.462 155.872 116.852 152.149 122.836C147.233 130.736 141.045 137.48 133.581 143.048C127.421 147.642 120.736 151.28 113.405 153.613C109.735 154.782 105.948 155.582 102.213 156.541C101.916 156.617 101.603 156.631 101.306 156.673C100.768 155.51 100.59 155.514 99.6015 156.365C99.1851 156.724 98.6218 157.061 98.0928 157.12C91.0548 157.916 84.0332 157.785 77.0457 156.562C76.9439 156.543 76.845 156.509 76.6087 156.447L76.6125 156.45ZM146.374 128.027C147.358 128.233 147.922 127.985 147.934 127.259C147.939 126.978 147.61 126.539 147.336 126.44C146.918 126.292 146.394 127.175 146.374 128.027ZM151.629 118.837C151.33 119.458 151.104 119.817 151.003 120.208C150.976 120.318 151.458 120.678 151.476 120.663C151.831 120.349 152.167 120.008 152.451 119.631C152.473 119.603 152.065 119.255 151.63 118.839L151.629 118.837ZM72.1758 153.307C71.5193 153.396 70.953 153.542 70.8849 154.272C70.8786 154.336 71.4353 154.571 71.6862 154.519C72.2942 154.389 72.6357 154.032 72.1758 153.307V153.307ZM119.788 148.894L119.917 149.307C120.317 149.293 120.719 149.28 121.119 149.266L121.059 148.028C120.967 147.993 120.873 147.96 120.781 147.925C120.45 148.248 120.119 148.569 119.788 148.892L119.788 148.894Z" fill="#C5F466"/>
<path d="M47.8369 115.189L47.4274 112.285C47.7458 112.225 48.0371 112.155 48.3324 112.114C77.8474 107.979 107.365 103.848 136.877 99.6923C137.721 99.574 137.933 99.8177 138.019 100.597C138.23 102.518 138.267 102.523 136.346 102.792C111.752 106.237 87.1588 109.678 62.5645 113.121C58.0141 113.758 53.4642 114.399 48.9141 115.038C48.5852 115.084 48.2564 115.13 47.8369 115.189V115.189ZM78.8776 110.734C79.907 109.662 79.9495 109.259 79.1685 108.332C78.0368 108.994 77.9128 109.886 78.8776 110.734ZM62.3899 112.477C62.912 112.104 63.6602 111.961 63.4119 111.147C63.3671 110.999 62.6629 110.859 62.4465 110.998C61.9117 111.343 61.8533 111.876 62.3899 112.477ZM70.2509 110.553C70.3455 110.569 70.4399 110.583 70.5345 110.599C70.6105 110.349 70.8237 110.005 70.7296 109.871C70.5881 109.668 70.2362 109.612 69.9733 109.495C69.9231 109.563 69.8729 109.632 69.8246 109.702C69.9673 109.986 70.1081 110.269 70.2509 110.553Z" fill="#C5F466"/>
<path d="M131.692 55.8534L41.3007 68.5134L40.9028 65.692C41.1962 65.6372 41.5127 65.5638 41.8331 65.519C63.3069 62.5148 84.7828 59.5138 106.256 56.508C114.27 55.3856 122.285 54.2664 130.294 53.1088C131.116 52.9903 131.414 53.2031 131.443 54.0054C131.464 54.5885 131.595 55.1681 131.692 55.8534ZM106.228 58.0085C106.556 57.6005 106.769 57.3314 106.985 57.0637C106.771 56.9296 106.494 56.6387 106.353 56.6943C106.033 56.8194 105.779 57.1147 105.499 57.3401C105.694 57.5196 105.889 57.699 106.227 58.0104L106.228 58.0085Z" fill="#C5F466"/>
<path d="M144.975 114.757L145.148 115.986C145.362 116.002 145.575 116.019 145.83 116.04C145.798 116.146 145.787 116.259 145.736 116.347C143.518 120.216 140.914 123.808 137.946 127.133C134.935 130.506 131.623 133.556 127.966 136.226C127.375 136.658 126.782 137.086 126.169 137.484C125.665 137.811 125.255 138.318 124.462 137.983C124.182 137.865 123.503 138.246 123.246 138.581C121.203 141.262 118.058 142.131 115.224 143.501C114.433 143.883 113.526 144.018 112.696 144.331C111.5 144.782 110.351 145.372 109.137 145.763C104.533 147.245 99.8158 148.204 94.9868 148.553C93.0101 148.694 91.0251 148.802 89.0431 148.785C86.9891 148.767 84.929 148.658 82.8871 148.446C80.8732 148.24 78.8628 147.925 76.8771 147.53C74.8916 147.137 72.9113 146.671 70.9725 146.086C62.9512 143.672 55.6509 139.866 49.0994 134.636C45.1411 131.476 41.5777 127.926 38.4819 123.917C38.195 123.546 38.0048 123.034 37.9511 122.569C37.8901 122.039 37.6719 121.789 37.2103 121.574C36.8074 121.386 36.3668 121.113 36.1331 120.754C34.803 118.711 33.5292 116.631 32.2236 114.543C33.5836 113.971 33.7225 114.022 34.3319 115.08C41.9374 128.281 52.8346 137.682 67.0599 143.166C77.7968 147.306 88.8957 148.346 100.218 146.398C113.31 144.146 124.614 138.322 134.106 129.019C134.616 128.517 135.262 128.142 135.727 127.605C136.803 126.359 137.873 125.099 138.823 123.758C140.776 121.007 142.649 118.2 144.552 115.415C144.66 115.257 144.758 115.091 144.971 114.754L144.975 114.757Z" fill="#C5F466"/>
<path d="M102.308 133.991C100.572 133.352 99.0281 132.827 97.5228 132.211C96.7456 131.892 96.1439 131.896 95.4536 132.449C94.1621 133.483 92.7917 134.418 91.2808 135.521C91.2938 134.788 91.2916 134.226 91.3186 133.666C91.3794 132.374 91.4833 131.085 91.5048 129.794C91.5099 129.526 91.2931 129.166 91.0677 128.999C89.6823 127.983 88.2656 127.013 86.86 126.024C86.7535 125.949 86.6598 125.854 86.4416 125.666C88.2177 125.182 89.8537 124.686 91.5158 124.303C92.2765 124.128 92.6374 123.763 92.8519 123.027C93.3205 121.412 93.8853 119.824 94.4649 118.062C95.2787 119.258 96.0237 120.331 96.745 121.418C97.9875 123.289 97.9816 123.283 100.211 123.225C101.522 123.192 102.836 123.197 104.346 123.182C103.157 124.637 102.112 125.954 101.021 127.232C100.549 127.787 100.338 128.261 100.659 129.022C101.192 130.289 101.565 131.622 101.999 132.93C102.095 133.217 102.17 133.511 102.309 133.989L102.308 133.991ZM99.6398 127.252C99.97 126.852 100.195 126.578 100.421 126.303C100.173 126.167 99.8783 125.874 99.6898 125.933C99.3944 126.022 99.1719 126.348 98.9181 126.575C99.1171 126.761 99.3145 126.947 99.6417 127.253L99.6398 127.252Z" fill="#C5F466"/>
<path d="M82.3247 32.2074C83.3994 33.7619 84.4102 35.1905 85.3836 36.6448C85.691 37.1023 85.9923 37.3335 86.6014 37.3097C88.3918 37.2417 90.1861 37.2741 92.1971 37.2658C91.1156 38.6115 90.2293 39.8735 89.1749 40.9745C88.3784 41.8054 88.2638 42.5339 88.6981 43.5751C89.2795 44.9681 89.6849 46.4353 90.2314 48.0656C88.9316 47.5967 87.7436 47.3137 86.7036 46.7572C84.9995 45.8477 83.6051 45.9815 82.1998 47.3487C81.3633 48.1629 80.303 48.7488 79.3407 49.4354C79.322 49.4483 79.2865 49.4396 79.1408 49.4497C79.2015 47.9993 79.1428 46.5399 79.3534 45.1213C79.5497 43.7954 79.1432 42.9998 77.9959 42.3506C76.8729 41.7151 75.8554 40.894 74.7956 40.1489C74.6702 40.0605 74.5691 39.938 74.3538 39.7341C75.8724 39.3164 77.2546 38.8409 78.6776 38.5698C79.9457 38.329 80.6666 37.7873 80.9513 36.4574C81.2561 35.0394 81.8324 33.679 82.3211 32.2061L82.3247 32.2074ZM85.3645 41.1563C85.8682 40.9183 86.3575 40.6874 86.6781 40.5349C86.9531 40.8586 87.1631 41.2802 87.3285 41.2639C87.6542 41.2319 88.0277 41.0173 88.2487 40.7643C88.4283 40.558 88.4646 40.1839 88.4652 39.8848C88.4661 39.6489 88.3588 39.2522 88.2199 39.2135C88.0082 39.1561 87.5905 39.2761 87.5046 39.4436C87.2381 39.9678 86.8658 39.9123 86.3921 39.8779C85.5291 39.8125 85.2331 40.2008 85.3628 41.1565L85.3645 41.1563Z" fill="#C5F466"/>
<path d="M146.72 53.7212C145.294 54.0679 145.302 54.0634 144.646 52.9166C144.242 52.2095 143.826 51.5057 143.389 50.8187C142.979 50.1738 142.442 49.569 143.308 48.5713C141.782 48.8926 141.489 47.8453 140.929 47.1276C139.649 45.4856 138.361 43.8499 137.172 42.3335C137.224 41.8666 137.267 41.4813 137.31 41.0942C136.925 41.0679 136.54 41.0432 136.008 41.0067C134.444 39.5411 132.765 37.8764 130.991 36.3224C125.406 31.4289 119.132 27.6348 112.171 25.0561C109.17 23.9455 106.04 23.1862 102.962 22.2881C102.434 22.1349 101.885 22.0921 102.051 21.3034C102.076 21.1872 101.859 21.0194 101.753 20.8753C101.619 20.9932 101.443 21.088 101.364 21.2356C101.274 21.4002 101.274 21.6122 101.209 21.9219C100.239 21.5795 99.0855 21.9546 98.4605 21.1263C97.819 21.1752 97.3026 21.2748 96.7951 21.2434C94.2202 21.0864 91.6474 20.8965 89.0847 20.7173C89.1737 20.317 89.2748 19.8689 89.3776 19.4086C112.646 18.9124 135.914 32.7249 146.72 53.7212V53.7212Z" fill="#C5F466"/>
<path d="M104.312 31.3148C105.295 32.7643 106.164 33.9992 106.977 35.2691C107.271 35.7269 107.596 35.9069 108.136 35.8927C109.698 35.8517 111.261 35.8616 112.995 35.8512C112.157 36.8963 111.458 37.9117 110.611 38.7804C109.729 39.6864 109.442 40.5245 110.03 41.7405C110.551 42.814 110.811 44.0128 111.251 45.3471C109.898 44.8635 108.658 44.516 107.506 43.9803C106.435 43.4828 105.616 43.5632 104.717 44.3522C103.773 45.1815 102.688 45.8527 101.504 46.7106C101.533 45.7651 101.434 44.9504 101.605 44.1969C102.101 42.0053 101.427 40.4903 99.3405 39.5473C98.6168 39.2198 98.0129 38.6261 97.1924 38.0371C98.7827 37.606 100.198 37.1976 101.627 36.8488C102.312 36.6811 102.733 36.4001 102.928 35.6517C103.289 34.2685 103.791 32.9237 104.313 31.3145L104.312 31.3148ZM105.715 41.6035C104.964 41.9597 104.52 42.6678 104.851 43.0263C104.999 43.1867 105.492 43.2662 105.64 43.1482C106.203 42.6986 106.056 42.1434 105.715 41.6035V41.6035Z" fill="#C5F466"/>
<path d="M81.6084 127.889C80.53 129.233 79.6161 130.444 78.616 131.578C78.1866 132.064 78.19 132.477 78.3828 133.019C78.8763 134.419 79.3388 135.831 79.8712 137.41C78.6057 136.953 77.4357 136.652 76.3836 136.12C75.1123 135.476 74.1319 135.61 73.0838 136.573C72.2068 137.38 71.1524 137.995 70.0742 138.77C70.1529 137.192 70.2061 135.738 70.313 134.288C70.331 134.051 70.6477 133.846 70.7052 133.599C70.7932 133.216 70.7767 132.808 70.8046 132.411C70.4907 132.429 70.1765 132.458 69.8623 132.463C69.6181 132.466 69.3151 132.526 69.138 132.41C68.0597 131.704 67.0109 130.952 65.7857 130.102C67.0334 129.753 68.1054 129.334 69.2169 129.172C70.7408 128.95 71.5705 128.22 71.8594 126.69C72.0553 125.653 72.5025 124.663 72.8374 123.652C72.8444 123.629 72.8746 123.613 73.0093 123.476C73.6581 124.764 74.8688 125.633 75.103 127.184C75.1505 127.497 76.0409 127.866 76.5597 127.892C78.1844 127.972 79.8172 127.903 81.6101 127.889L81.6084 127.889Z" fill="#C5F466"/>
<path d="M109.3 123.975C111.038 123.497 112.561 123.112 114.059 122.644C114.392 122.541 114.748 122.202 114.894 121.881C115.196 121.22 115.302 120.471 115.603 119.81C115.902 119.153 116.342 118.56 116.802 117.805C117.664 119.065 118.391 120.194 119.197 121.263C119.404 121.538 119.851 121.774 120.195 121.784C121.766 121.827 123.341 121.785 125.129 121.77C123.977 123.197 122.951 124.475 121.908 125.741C121.834 125.829 121.625 125.852 121.489 125.833C120.462 125.697 120.111 126.141 120.475 127.185C120.904 126.993 121.328 126.801 121.809 126.585C122.33 128.143 122.829 129.63 123.382 131.285C122.141 130.839 120.97 130.543 119.921 130.01C118.647 129.363 117.655 129.507 116.604 130.452C115.734 131.235 114.712 131.85 113.759 132.541C113.673 132.512 113.585 132.483 113.499 132.454C113.669 131.468 113.847 130.485 114.004 129.496C114.033 129.305 113.997 129.1 113.962 128.907C113.924 128.699 113.768 128.48 113.807 128.297C113.998 127.416 113.617 126.914 112.879 126.458C111.71 125.739 110.617 124.896 109.301 123.973L109.3 123.975Z" fill="#C5F466"/>
<path d="M33.777 53.8795C33.6425 53.4712 33.525 53.1118 33.4057 52.7509C33.2143 53.0682 33.0476 53.4025 32.8237 53.6952C32.6444 53.9288 32.3961 54.1088 32.0113 54.1952C32.3995 53.4779 32.7748 52.7539 33.178 52.0464C36.3529 46.4847 40.2681 41.5011 44.9082 37.0839C45.2732 36.7355 45.5942 36.5248 46.1453 36.6475C46.7954 36.7923 47.4521 36.7413 47.862 35.9236C47.5952 35.7423 47.3114 35.5496 46.9008 35.2706C58.7733 25.0908 72.5173 19.882 88.1383 19.4301C87.5078 20.1522 87.0304 20.9281 85.8244 20.9911C75.9139 21.4975 66.6582 24.282 58.0479 29.18C51.7755 32.7478 46.2957 37.2894 41.5668 42.739C41.3005 43.0462 40.8774 43.2251 40.5101 43.4354C40.0351 43.707 39.5614 43.939 39.7792 44.6466C39.8261 44.7972 39.6754 45.0387 39.5632 45.2014C38.1796 47.2199 36.8886 49.3125 35.3507 51.2074C34.6671 52.0497 34.586 53.1614 33.7809 53.8824L33.777 53.8795Z" fill="#C5F466"/>
<path d="M60.8116 37.4432C61.7714 38.8618 62.6348 40.0462 63.3895 41.2971C63.7578 41.9067 64.2013 42.0308 64.8416 42.0095C66.3236 41.9625 67.8064 41.9701 69.4963 41.9538C68.3675 43.3523 67.3535 44.6066 66.3426 45.8587C65.1396 45.0567 64.7392 45.0923 63.7246 46.1724C63.2097 46.7195 62.7618 47.3289 62.2756 47.9215C63.749 48.566 64.8181 48.2847 66.1667 46.8555C66.3938 47.4951 66.6006 48.0761 66.776 48.5675C66.5707 48.8833 66.4188 49.1164 66.2669 49.3495C66.4776 49.4362 66.6962 49.5064 66.8947 49.6153C67.0227 49.6862 67.1728 49.7916 67.2212 49.9164C67.3914 50.359 67.5225 50.8156 67.7344 51.4693C66.4443 51.0076 65.2486 50.7069 64.1781 50.1649C62.9453 49.5397 62.0084 49.7392 61.0077 50.6141C60.1044 51.4035 59.0708 52.0454 57.9669 52.8442C58.0403 51.1202 58.1336 49.537 58.1499 47.9544C58.1529 47.6362 57.9451 47.2057 57.6922 47.0139C56.5712 46.1628 55.3969 45.3825 54.244 44.5718C54.094 44.4664 53.9581 44.3402 53.722 44.146C55.2725 43.7239 56.6944 43.2992 58.1366 42.9588C58.8156 42.7988 59.1838 42.4978 59.3819 41.8037C59.7868 40.3802 60.2988 38.9878 60.8104 37.4468L60.8116 37.4432Z" fill="#C5F466"/>
<path d="M35.3262 129.408C34.587 130.064 33.8813 130.689 33.1251 131.357C29.1445 126.631 25.7721 121.45 23.0056 115.665C24.004 115.525 24.9021 115.379 25.8052 115.291C25.9588 115.277 26.2113 115.477 26.2924 115.64C28.7475 120.601 31.8387 125.147 35.3295 129.432C35.346 129.452 35.3471 129.484 35.3226 129.407L35.3262 129.408Z" fill="#C5F466"/>
<path d="M153.108 97.4601C152.331 100.106 151.631 102.558 150.885 104.995C150.572 106.014 150.184 107.012 149.772 107.997C149.62 108.362 149.294 108.65 149.068 108.986C148.933 109.184 148.727 109.418 148.743 109.619C148.84 110.788 148.363 111.579 147.416 112.265C146.63 112.835 146.008 113.628 145.143 114.492C145.891 112.942 146.556 111.607 147.185 110.254C148.944 106.471 150.305 102.544 151.19 98.4701C151.426 97.3881 152.153 97.616 153.109 97.4598L153.108 97.4601Z" fill="#C5F466"/>
<path d="M31.4759 55.2269C32.0529 56.4309 32.4726 55.4273 33.1226 55.2201C32.7836 55.9219 32.4946 56.5177 32.2097 57.106C31.8903 57.0978 31.5968 57.091 31.066 57.0765C32.0377 58.1552 31.3361 58.9916 30.9948 59.8714C30.6082 60.8669 30.3776 61.9619 29.8063 62.8364C29.1703 63.8105 29.2103 64.9069 28.8534 65.9188C28.4822 66.9754 28.2411 68.0804 27.9706 69.1707C27.6338 70.5318 27.6477 70.5332 26.1067 70.6107C27.2264 65.2651 29.0131 60.1968 31.474 55.2255L31.4759 55.2269Z" fill="#C5F466"/>
<path d="M30.7055 102.644C29.3319 102.836 28.0146 102.747 26.7535 102.377C25.5019 102.006 24.3675 101.412 23.3505 100.595C22.3416 99.7672 21.5049 98.7668 20.8406 97.5936C20.1762 96.4204 19.7452 95.133 19.5476 93.7314C19.3353 92.2263 19.4098 90.8153 19.7709 89.4985C20.1321 88.1817 20.71 87.0071 21.5046 85.975C22.2979 84.9333 23.2434 84.0863 24.341 83.4337C25.4467 82.7704 26.6347 82.3499 27.9048 82.172C29.2972 81.9769 30.7071 82.1104 32.1346 82.5724C33.5621 83.0344 34.9022 83.8971 36.1549 85.1605L32.946 87.5093C32.2457 86.8975 31.5 86.4744 30.709 86.2398C29.9274 86.004 29.1556 85.9394 28.3935 86.0461C27.6315 86.1528 26.9195 86.4108 26.2577 86.8201C25.6053 87.228 25.0467 87.7571 24.5819 88.4074C24.1172 89.0576 23.7799 89.7955 23.5702 90.6211C23.3604 91.4467 23.3218 92.3298 23.4545 93.2705C23.5779 94.1454 23.8438 94.9427 24.2523 95.6625C24.6703 96.3809 25.1878 96.9895 25.805 97.4883C26.4222 97.987 27.1068 98.3515 27.8589 98.5819C28.619 98.8016 29.4036 98.8548 30.2127 98.7415C30.7113 98.6717 31.1906 98.5326 31.6505 98.3243C32.1185 98.1053 32.5537 97.8237 32.9561 97.4795C33.3585 97.1354 33.7133 96.726 34.0205 96.2513C34.3371 95.7753 34.5974 95.24 34.8014 94.6454L31.7391 95.0743L31.2615 91.6879L38.9103 90.6166C39.1724 92.0667 39.1544 93.4698 38.8563 94.8257C38.5583 96.1817 38.032 97.4161 37.2775 98.529C36.5217 99.6325 35.5855 100.545 34.4689 101.268C33.3524 101.99 32.0979 102.449 30.7055 102.644ZM45.4211 80.064L49.8523 79.4434L59.8072 98.1938L55.6723 98.7729L54.0253 95.6654L45.8966 96.8039L45.1728 100.243L41.0379 100.823L45.4211 80.064ZM46.7727 92.7098L52.0507 91.9705L48.3768 85.1035L46.7727 92.7098ZM62.1093 97.8714L59.3234 78.1169L67.1698 77.0179C68.2423 76.8677 69.2499 77.0048 70.1924 77.4292C71.1429 77.8428 71.9366 78.4703 72.5733 79.3116C73.2181 80.1422 73.6181 81.1078 73.7733 82.2084C73.8954 83.0738 73.8583 83.8992 73.662 84.6845C73.4644 85.4604 73.1319 86.1641 72.6645 86.7955C72.1971 87.427 71.6231 87.9486 70.9425 88.3605L76.786 95.8158L72.2983 96.4443L66.7021 89.3142L64.9098 89.5652L66.0043 97.3259L62.1093 97.8714ZM64.3606 85.6707L67.8463 85.1825C68.2697 85.1232 68.6408 84.9657 68.9598 84.71C69.2868 84.4436 69.5285 84.1171 69.6851 83.7307C69.8498 83.3335 69.9009 82.9139 69.8386 82.4717C69.7775 82.039 69.6136 81.6591 69.3468 81.3319C69.0881 80.994 68.7647 80.7419 68.3767 80.5757C67.9981 80.4081 67.5971 80.3539 67.1737 80.4132L63.688 80.9014L64.3606 85.6707ZM82.576 74.8602L87.0072 74.2395L96.9622 92.99L92.8273 93.5691L91.1802 90.4615L83.0515 91.6L82.3278 95.0397L78.1929 95.6188L82.576 74.8602ZM83.9276 87.5059L89.2056 86.7667L85.5317 79.8997L83.9276 87.5059ZM99.2642 92.6676L96.4783 72.913L100.684 72.324L110.182 83.9583L108.389 71.2448L112.284 70.6993L115.07 90.4539L110.864 91.0429L101.366 79.4086L103.159 92.122L99.2642 92.6676ZM130.621 68.1311L131.17 72.0255L125.356 72.8399L127.593 88.6999L123.698 89.2454L121.461 73.3854L115.647 74.1997L115.098 70.3053L130.621 68.1311ZM136.65 87.4315L133.864 67.6769L137.759 67.1314L140.545 86.8859L136.65 87.4315ZM134.562 65.9963L135.118 61.7744L139.013 61.2289L137.159 65.6326L134.562 65.9963ZM148.176 65.6724L152.607 65.0518L162.562 83.8022L158.427 84.3813L156.78 81.2737L148.651 82.4122L147.928 85.8519L143.793 86.431L148.176 65.6724ZM149.528 78.3181L154.806 77.5789L151.132 70.7119L149.528 78.3181Z" fill="#C5F466"/>
</svg>
