<svg width="26" height="26" viewBox="0 0 26 26" fill="none" xmlns="http://www.w3.org/2000/svg">
<path d="M7.80009 20.5129L12.8001 16.7027L17.8 20.5129L15.8334 14.3437L20.8205 10.8335H14.7308L12.8001 4.45146L10.8488 10.8335H4.75906L9.74622 14.3437L7.80009 20.5129ZM12.8023 25.6668C11.064 25.6668 9.4263 25.3343 7.88906 24.6694C6.35181 24.0045 5.00749 23.0967 3.85609 21.9458C2.70467 20.7949 1.79637 19.4511 1.13119 17.9146C0.466012 16.378 0.133423 14.7406 0.133423 13.0024C0.133423 11.2505 0.465868 9.60374 1.13076 8.06223C1.79565 6.5207 2.70353 5.17978 3.85442 4.0395C5.00533 2.89918 6.34907 1.99644 7.88562 1.33126C9.4222 0.666085 11.0596 0.333496 12.7978 0.333496C14.5497 0.333496 16.1964 0.665941 17.738 1.33083C19.2795 1.99572 20.6204 2.89805 21.7607 4.03783C22.901 5.17763 23.8037 6.51795 24.4689 8.0588C25.1341 9.59962 25.4667 11.246 25.4667 12.9979C25.4667 14.7361 25.1342 16.3739 24.4694 17.9111C23.8045 19.4484 22.9021 20.7927 21.7624 21.9441C20.6226 23.0955 19.2822 24.0038 17.7414 24.669C16.2006 25.3342 14.5542 25.6668 12.8023 25.6668ZM12.8001 24.154C15.9043 24.154 18.5394 23.0676 20.7052 20.895C22.871 18.7224 23.9539 16.0907 23.9539 13.0001C23.9539 9.89586 22.871 7.26082 20.7052 5.095C18.5394 2.9292 15.9043 1.8463 12.8001 1.8463C9.70946 1.8463 7.07784 2.9292 4.90519 5.095C2.73255 7.26082 1.64622 9.89586 1.64622 13.0001C1.64622 16.0907 2.73255 18.7224 4.90519 20.895C7.07784 23.0676 9.70946 24.154 12.8001 24.154Z" fill="#90A3BF"/>
</svg>
