<svg width="18" height="17" viewBox="0 0 18 17" fill="none" xmlns="http://www.w3.org/2000/svg">
<path fill-rule="evenodd" clip-rule="evenodd" d="M8.16664 1.33965C8.22421 1.15712 8.33846 0.997687 8.49281 0.884515C8.64717 0.771344 8.83358 0.710327 9.02498 0.710327C9.21637 0.710327 9.40279 0.771344 9.55714 0.884515C9.71149 0.997687 9.82575 1.15712 9.88331 1.33965L11.4333 6.10632H16.4333C16.6315 6.09882 16.8268 6.15644 16.9892 6.27035C17.1516 6.38427 17.2723 6.54822 17.3327 6.73717C17.3932 6.92611 17.3902 7.12965 17.324 7.3167C17.2579 7.50374 17.1324 7.664 16.9666 7.77299L12.9083 10.7147L14.4583 15.4897C14.5196 15.6715 14.5212 15.8683 14.4627 16.0511C14.4043 16.2339 14.2889 16.3933 14.1335 16.5059C13.9781 16.6185 13.7907 16.6785 13.5988 16.6771C13.4068 16.6756 13.2204 16.6129 13.0666 16.498L8.99998 13.523L4.94164 16.473C4.7879 16.5879 4.60145 16.6506 4.40951 16.6521C4.21758 16.6535 4.03022 16.5935 3.87479 16.4809C3.71936 16.3683 3.604 16.2089 3.54557 16.0261C3.48713 15.8433 3.48868 15.6465 3.54998 15.4647L5.09998 10.6897L1.04164 7.74799C0.875879 7.639 0.750352 7.47874 0.684243 7.2917C0.618134 7.10466 0.615077 6.90111 0.675539 6.71217C0.736001 6.52322 0.856658 6.35927 1.01907 6.24535C1.18149 6.13144 1.37673 6.07382 1.57498 6.08132H6.57498L8.16664 1.33965Z" fill="#FBAD39"/>
</svg>
