<svg width="20" height="20" viewBox="0 0 20 20" fill="none" xmlns="http://www.w3.org/2000/svg">
<path d="M8.52498 14.2134L15.2634 7.47501L14.3923 6.61926L8.52498 12.4962L5.56345 9.53463L4.7173 10.3904L8.52498 14.2134ZM10.0016 19.5C8.69797 19.5 7.46966 19.2506 6.31673 18.752C5.16379 18.2533 4.15555 17.5724 3.292 16.7092C2.42843 15.846 1.74721 14.8382 1.24833 13.6858C0.749442 12.5334 0.5 11.3053 0.5 10.0017C0.5 8.68775 0.749334 7.45271 1.248 6.29658C1.74667 5.14043 2.42758 4.13475 3.29075 3.27953C4.15393 2.4243 5.16173 1.74724 6.31415 1.24836C7.46658 0.749472 8.69463 0.500031 9.9983 0.500031C11.3122 0.500031 12.5473 0.749364 13.7034 1.24803C14.8596 1.7467 15.8652 2.42345 16.7205 3.27828C17.5757 4.13313 18.2527 5.13837 18.7516 6.29401C19.2505 7.44962 19.5 8.6844 19.5 9.99833C19.5 11.302 19.2506 12.5303 18.752 13.6833C18.2533 14.8362 17.5765 15.8444 16.7217 16.708C15.8669 17.5715 14.8616 18.2528 13.706 18.7517C12.5504 19.2505 11.3156 19.5 10.0016 19.5ZM9.99998 18.3654C12.3282 18.3654 14.3045 17.5506 15.9288 15.9212C17.5532 14.2917 18.3654 12.318 18.3654 10C18.3654 7.67181 17.5532 5.69552 15.9288 4.07116C14.3045 2.44681 12.3282 1.63463 9.99998 1.63463C7.68203 1.63463 5.70831 2.44681 4.07883 4.07116C2.44934 5.69552 1.6346 7.67181 1.6346 10C1.6346 12.318 2.44934 14.2917 4.07883 15.9212C5.70831 17.5506 7.68203 18.3654 9.99998 18.3654Z" fill="#90A3BF"/>
</svg>
