<svg width="32" height="32" viewBox="0 0 32 32" fill="none" xmlns="http://www.w3.org/2000/svg">
<path d="M27.6667 14.6102V25.7436C27.6667 26.2683 27.4773 26.7201 27.0987 27.0987C26.7201 27.4773 26.2684 27.6666 25.7436 27.6666H6.22312C5.69834 27.6666 5.24663 27.4773 4.86799 27.0987C4.48936 26.7201 4.30005 26.2683 4.30005 25.7436V14.5846C3.68636 14.094 3.27525 13.4812 3.06672 12.7462C2.85816 12.0111 2.87183 11.2675 3.10772 10.5154L4.47695 6.1308C4.65473 5.54789 4.95302 5.10259 5.37182 4.7949C5.79062 4.48721 6.28464 4.33337 6.85389 4.33337H24.9923C25.5889 4.33337 26.1077 4.48849 26.5487 4.79873C26.9897 5.109 27.2949 5.54447 27.4641 6.10513L28.8923 10.5154C29.1282 11.2675 29.1363 12.0154 28.9167 12.759C28.697 13.5026 28.2803 14.1197 27.6667 14.6102ZM18.9744 13.9103C19.7385 13.9103 20.3513 13.6821 20.8129 13.2257C21.2744 12.7692 21.465 12.2539 21.3847 11.6795L20.5 5.84613H16.7564V11.5256C16.7564 12.1633 16.9688 12.7201 17.3936 13.1962C17.8184 13.6722 18.3453 13.9103 18.9744 13.9103ZM12.8052 13.9103C13.4958 13.9103 14.0748 13.6778 14.5424 13.2128C15.0099 12.7479 15.2436 12.1855 15.2436 11.5256V5.84613H11.4872L10.6026 11.7308C10.5308 12.2402 10.7077 12.7308 11.1334 13.2026C11.559 13.6744 12.1163 13.9103 12.8052 13.9103ZM6.77695 13.9103C7.36157 13.9103 7.86756 13.7098 8.29492 13.309C8.72227 12.9081 8.97355 12.4154 9.04875 11.8308L9.92825 5.84613H6.56929C6.42397 5.84613 6.30644 5.87819 6.21669 5.9423C6.12693 6.00641 6.06495 6.10258 6.03075 6.2308L4.60002 10.8667C4.36069 11.6068 4.45599 12.2992 4.88592 12.9436C5.31583 13.588 5.94617 13.9103 6.77695 13.9103ZM25.1898 13.9103C25.9607 13.9103 26.5817 13.6021 27.0526 12.9859C27.5235 12.3697 27.6351 11.6632 27.3872 10.8667L25.9436 6.20513C25.9094 6.07693 25.8475 5.98504 25.7577 5.92947C25.668 5.87391 25.5504 5.84613 25.4051 5.84613H22.059L22.9385 11.8308C23.0222 12.4154 23.2756 12.9081 23.6987 13.309C24.1218 13.7098 24.6188 13.9103 25.1898 13.9103ZM6.22312 26.1539H25.7436C25.8547 26.1539 25.9509 26.1154 26.0321 26.0385C26.1133 25.9615 26.1539 25.8632 26.1539 25.7436V15.3256C26.0992 15.3649 25.9757 15.391 25.7834 15.4038C25.591 15.4167 25.3932 15.4231 25.1898 15.4231C24.6256 15.4231 24.1 15.3021 23.6128 15.0602C23.1256 14.8183 22.6504 14.4401 22.1872 13.9256C21.8402 14.3786 21.4043 14.7414 20.8795 15.0141C20.3547 15.2867 19.7402 15.4231 19.0359 15.4231C18.4205 15.4231 17.8782 15.3158 17.409 15.1013C16.9398 14.8867 16.4701 14.5444 16 14.0743C15.6154 14.5171 15.159 14.8525 14.6308 15.0807C14.1026 15.309 13.5462 15.4231 12.9616 15.4231C12.324 15.4231 11.7385 15.3073 11.2052 15.0756C10.6718 14.844 10.2163 14.4607 9.83849 13.9256C9.22822 14.4863 8.6654 14.8761 8.15002 15.0949C7.63462 15.3137 7.17693 15.4231 6.77695 15.4231C6.5872 15.4231 6.40514 15.4167 6.23079 15.4038C6.05643 15.391 5.91711 15.3649 5.81282 15.3256V25.7436C5.81282 25.8632 5.85342 25.9615 5.93462 26.0385C6.01584 26.1154 6.11201 26.1539 6.22312 26.1539Z" fill="#90A3BF"/>
</svg>
