<svg width="24" height="24" viewBox="0 0 24 24" fill="none" xmlns="http://www.w3.org/2000/svg">
<path d="M12 1C5.93513 1 1 5.93519 1 12C1 18.0648 5.93519 23 12 23C18.0648 23 23 18.0648 23 12C23 5.93519 18.0648 1 12 1ZM12 21.8108C6.58919 21.8108 2.18919 17.4109 2.18919 12C2.18919 6.58914 6.58914 2.18919 12 2.18919C17.4109 2.18919 21.8108 6.58914 21.8108 12C21.8108 17.4109 17.4109 21.8108 12 21.8108Z" fill="#90A3BF"/>
<path d="M15.9474 6C15.3685 6 14.8949 6.49082 14.8949 7.09082C14.8949 7.49984 15.1054 7.85447 15.4212 8.01806V11.7272H12.5263V8.01806C12.842 7.82706 13.0526 7.47265 13.0526 7.09082C13.0526 6.49082 12.579 6 12 6C11.421 6 10.9474 6.49082 10.9474 7.09082C10.9474 7.49984 11.158 7.85447 11.4737 8.01806V11.7272H8.57884V8.01806C8.89457 7.82706 9.10511 7.47265 9.10511 7.09082C9.10511 6.49082 8.63152 6 8.05256 6C7.4736 6 7 6.49082 7 7.09082C7 7.49984 7.21055 7.85447 7.52628 8.01806V15.9545C7.21054 16.1455 7 16.4999 7 16.8818C7 17.4818 7.4736 17.9726 8.05256 17.9726C8.63152 17.9726 9.10511 17.4818 9.10511 16.8818C9.10511 16.4727 8.89456 16.1181 8.57884 15.9545V12.8182H11.4737V15.9819C11.158 16.1729 10.9474 16.5274 10.9474 16.9092C10.9474 17.5092 11.421 18 12 18C12.579 18 13.0526 17.5092 13.0526 16.9092C13.0526 16.5002 12.842 16.1455 12.5263 15.9819V12.8182H15.4212C16.0001 12.8182 16.4737 12.3274 16.4737 11.7274V8.01806C16.7895 7.82706 17 7.47265 17 7.09082C17 6.49082 16.5264 6 15.9474 6Z" fill="#90A3BF"/>
</svg>
