<svg width="20" height="20" viewBox="0 0 20 20" fill="none" xmlns="http://www.w3.org/2000/svg">
<path d="M10.0016 19.5C8.68772 19.5 7.45268 19.2506 6.29655 18.752C5.1404 18.2533 4.13472 17.5765 3.2795 16.7217C2.42427 15.8669 1.74721 14.8616 1.24833 13.706C0.749442 12.5504 0.5 11.3156 0.5 10.0017C0.5 8.68772 0.749375 7.45268 1.24812 6.29655C1.74688 5.1404 2.42375 4.13472 3.27875 3.2795C4.13375 2.42427 5.13917 1.74721 6.295 1.24833C7.45082 0.749442 8.68581 0.5 9.99998 0.5H10.5673V8.61155C10.8506 8.7359 11.0769 8.92233 11.2461 9.17085C11.4153 9.41937 11.5 9.69613 11.5 10.0012C11.5 10.4093 11.3522 10.7612 11.0567 11.0567C10.7612 11.3522 10.4089 11.5 9.99998 11.5C9.59101 11.5 9.23878 11.3522 8.94328 11.0567C8.64776 10.7612 8.5 10.4097 8.5 10.0023C8.5 9.69779 8.58462 9.42257 8.75385 9.17663C8.92308 8.93068 9.14936 8.74232 9.43268 8.61155V5.66538C8.34294 5.80383 7.43749 6.28074 6.71633 7.09613C5.99517 7.91151 5.6346 8.87946 5.6346 9.99998C5.6346 11.2115 6.05928 12.242 6.90863 13.0913C7.75799 13.9407 8.78844 14.3654 9.99998 14.3654C11.2115 14.3654 12.242 13.9407 13.0913 13.0913C13.9407 12.242 14.3654 11.2115 14.3654 9.99998C14.3654 9.33588 14.2352 8.72851 13.975 8.17788C13.7147 7.62723 13.3577 7.14998 12.9038 6.74613L13.7192 5.93078C14.264 6.43589 14.6971 7.03723 15.0182 7.7348C15.3394 8.43237 15.5 9.18743 15.5 9.99998C15.5 11.5277 14.9655 12.8263 13.8965 13.8958C12.8275 14.9652 11.5294 15.5 10.0023 15.5C8.4751 15.5 7.17628 14.9652 6.10578 13.8958C5.03526 12.8263 4.5 11.5277 4.5 9.99998C4.5 8.55896 4.97276 7.32083 5.91828 6.28558C6.86379 5.25033 8.03526 4.66027 9.43268 4.5154V1.64997C7.24294 1.78844 5.39583 2.65799 3.89133 4.25863C2.38684 5.85928 1.6346 7.77306 1.6346 9.99998C1.6346 12.3282 2.44678 14.3045 4.07113 15.9288C5.69549 17.5532 7.67178 18.3654 9.99998 18.3654C12.3282 18.3654 14.3045 17.5532 15.9288 15.9288C17.5532 14.3045 18.3654 12.3282 18.3654 9.99998C18.3654 8.78588 18.1311 7.66023 17.6625 6.62305C17.1939 5.58588 16.5493 4.68524 15.7288 3.92113L16.5442 3.10577C17.4557 3.97756 18.1762 5.0035 18.7057 6.1836C19.2352 7.36368 19.5 8.63485 19.5 9.9971C19.5 11.3118 19.2506 12.5473 18.752 13.7034C18.2533 14.8596 17.5765 15.8652 16.7217 16.7205C15.8669 17.5757 14.8616 18.2527 13.706 18.7516C12.5504 19.2505 11.3156 19.5 10.0016 19.5Z" fill="#90A3BF"/>
</svg>
