<svg width="24" height="22" viewBox="0 0 24 22" fill="none" xmlns="http://www.w3.org/2000/svg">
<path d="M18.8559 15.15C17.6815 15.1436 16.6847 14.776 15.8655 14.0471C15.0463 13.3183 14.536 12.3609 14.3347 11.175H10.3924L9.72899 10.0404H14.3347C14.3783 9.52631 14.5353 9.00035 14.8059 8.46253C15.0764 7.9247 15.4341 7.48078 15.879 7.13078H8.03089L7.34244 5.99621H16.4943L14.9462 1.58656C14.927 1.52244 14.8901 1.47276 14.8357 1.43751C14.7812 1.40224 14.7219 1.38461 14.6578 1.38461H11.1155V0.250031H14.6578C14.976 0.250031 15.2589 0.339997 15.5065 0.51993C15.754 0.699864 15.9269 0.93233 16.0251 1.21733L17.6847 5.99621H18.6732C20.0527 5.99621 21.1892 6.41992 22.0828 7.26736C22.9764 8.11479 23.4231 9.21991 23.4231 10.5827C23.4231 11.8392 22.9744 12.9145 22.077 13.8087C21.1796 14.7029 20.1059 15.15 18.8559 15.15ZM18.857 14.0154C19.787 14.0154 20.5914 13.6757 21.2703 12.9964C21.9491 12.317 22.2886 11.5124 22.2886 10.5827C22.2886 9.5981 21.9626 8.77661 21.3107 8.11828C20.6587 7.45995 19.8415 7.13078 18.8588 7.13078C18.7697 7.13078 18.643 7.13976 18.4789 7.15771C18.3148 7.17566 18.1988 7.19425 18.1308 7.21348L19.1597 9.98271L18.1059 10.3673L17.0809 7.57308C16.5411 7.93078 16.1299 8.37053 15.8472 8.89233C15.5645 9.41413 15.4231 9.9776 15.4231 10.5827C15.4231 11.5421 15.7571 12.3541 16.4251 13.0186C17.093 13.6832 17.9037 14.0154 18.857 14.0154ZM7.38589 21.7693C6.67307 21.7693 6.06936 21.5222 5.57474 21.0281C5.08014 20.534 4.83284 19.9304 4.83284 19.2173C4.83284 19.1288 4.83605 19.0493 4.84247 18.9788C4.84888 18.9083 4.8585 18.832 4.87132 18.75H0.634766V17.6154H5.39649C5.61304 17.3462 5.89151 17.1221 6.23189 16.9433C6.57227 16.7644 6.95717 16.675 7.38657 16.675C7.76998 16.675 8.12932 16.7535 8.46457 16.9106C8.79982 17.0676 9.1027 17.3026 9.37322 17.6154H12.2597C12.3495 17.6154 12.4232 17.5866 12.4809 17.5289C12.5386 17.4712 12.5674 17.3974 12.5674 17.3077V14.9424C12.5674 14.8526 12.5386 14.7789 12.4809 14.7212C12.4232 14.6635 12.3495 14.6346 12.2597 14.6346H0.634791V13.5H2.81747V10.25H0.634766V9.11543H7.28089L9.86552 13.5H12.2597C12.6514 13.5 12.9897 13.6425 13.2746 13.9275C13.5596 14.2124 13.702 14.5507 13.702 14.9424V17.3077C13.702 17.6993 13.5596 18.0376 13.2746 18.3226C12.9897 18.6075 12.6514 18.75 12.2597 18.75H9.89822C9.91103 18.832 9.92065 18.9083 9.92707 18.9788C9.93347 19.0493 9.93667 19.1288 9.93667 19.2173C9.93667 19.9304 9.68974 20.534 9.19589 21.0281C8.70204 21.5222 8.09871 21.7693 7.38589 21.7693ZM3.95207 13.5H8.54824L6.64247 10.25H3.95207V13.5ZM7.38477 20.6346C7.76938 20.6346 8.10176 20.4962 8.38189 20.2192C8.66202 19.9423 8.80209 19.6083 8.80209 19.2173C8.80209 18.8327 8.66202 18.5019 8.38189 18.225C8.10176 17.9481 7.76938 17.8096 7.38477 17.8096C7.00015 17.8096 6.66777 17.9481 6.38764 18.225C6.10751 18.5019 5.96744 18.8327 5.96744 19.2173C5.96744 19.6083 6.10751 19.9423 6.38764 20.2192C6.66777 20.4962 7.00015 20.6346 7.38477 20.6346Z" fill="#90A3BF"/>
</svg>
