<svg width="29" height="23" viewBox="0 0 29 23" fill="none" xmlns="http://www.w3.org/2000/svg">
<path d="M1.20257 22.9745C0.987812 22.9745 0.808056 22.9015 0.6633 22.7556C0.518545 22.6096 0.446167 22.4285 0.446167 22.212C0.446167 21.9955 0.518545 21.8164 0.6633 21.6745C0.808056 21.5326 0.987812 21.4617 1.20257 21.4617H27.9974C28.2121 21.4617 28.3919 21.5346 28.5366 21.6806C28.6814 21.8265 28.7538 22.0077 28.7538 22.2241C28.7538 22.4406 28.6814 22.6198 28.5366 22.7616C28.3919 22.9035 28.2121 22.9745 27.9974 22.9745H1.20257ZM3.85643 19.6412C3.33357 19.6412 2.88233 19.4514 2.50273 19.0718C2.12313 18.6922 1.93333 18.241 1.93333 17.7181V2.89768C1.93333 2.37481 2.12313 1.92359 2.50273 1.54401C2.88233 1.16441 3.33357 0.974609 3.85643 0.974609H25.3435C25.8664 0.974609 26.3176 1.16441 26.6972 1.54401C27.0768 1.92359 27.2666 2.37481 27.2666 2.89768V17.7181C27.2666 18.241 27.0768 18.6922 26.6972 19.0718C26.3176 19.4514 25.8664 19.6412 25.3435 19.6412H3.85643ZM3.85643 18.1284H25.3435C25.4461 18.1284 25.5401 18.0856 25.6256 18.0002C25.7111 17.9147 25.7538 17.8207 25.7538 17.7181V2.89768C25.7538 2.7951 25.7111 2.70108 25.6256 2.61561C25.5401 2.53012 25.4461 2.48738 25.3435 2.48738H3.85643C3.75386 2.48738 3.65982 2.53012 3.57433 2.61561C3.48887 2.70108 3.44613 2.7951 3.44613 2.89768V17.7181C3.44613 17.8207 3.48887 17.9147 3.57433 18.0002C3.65982 18.0856 3.75386 18.1284 3.85643 18.1284Z" fill="#90A3BF"/>
</svg>
