<svg width="18" height="24" viewBox="0 0 18 24" fill="none" xmlns="http://www.w3.org/2000/svg">
<path d="M6.33214 13.36L7.33352 10.005L4.69781 8.04999H7.9912L9 4.66001L10.0088 8.04999H13.3022L10.6591 10.005L11.6604 13.36L9 11.2775L6.33214 13.36ZM2.57143 24V15.4325C1.75714 14.6225 1.125 13.6742 0.675 12.5875C0.225 11.5008 0 10.3383 0 9.09999C0 6.56333 0.872796 4.41249 2.61839 2.64748C4.364 0.882494 6.49121 0 9 0C11.5088 0 13.636 0.882494 15.3816 2.64748C17.1272 4.41249 18 6.56333 18 9.09999C18 10.3383 17.775 11.5008 17.325 12.5875C16.875 13.6742 16.2429 14.6225 15.4286 15.4325V24L9 22.05L2.57143 24ZM9 16.9C11.1429 16.9 12.9643 16.1417 14.4643 14.625C15.9643 13.1083 16.7143 11.2667 16.7143 9.09999C16.7143 6.93333 15.9643 5.09166 14.4643 3.575C12.9643 2.05833 11.1429 1.3 9 1.3C6.85714 1.3 5.03571 2.05833 3.53571 3.575C2.03571 5.09166 1.28571 6.93333 1.28571 9.09999C1.28571 11.2667 2.03571 13.1083 3.53571 14.625C5.03571 16.1417 6.85714 16.9 9 16.9ZM3.85714 22.1575L9 20.7L14.1429 22.1575V16.5275C13.4258 17.0608 12.6293 17.4729 11.7532 17.7637C10.8771 18.0546 9.95934 18.2 9 18.2C8.04066 18.2 7.12294 18.0546 6.24684 17.7637C5.37075 17.4729 4.57419 17.0608 3.85714 16.5275V22.1575Z" fill="#90A3BF"/>
</svg>
