<svg width="48" height="52" viewBox="0 0 48 52" fill="none" xmlns="http://www.w3.org/2000/svg">
<path d="M43.8117 37.9727C39.9812 43.3112 33.7106 46.7902 26.6234 46.7902C14.9615 46.7902 5.50862 37.3717 5.50862 25.7522C5.50862 14.1327 14.9615 4.71413 26.6234 4.71413C31.7072 4.71413 36.37 6.50535 40.0145 9.48876L33.6871 32.8019L28.6972 14.56H25.0606L20.0708 32.9541L15.3355 14.56H10.9802L17.7854 38.8975H22.3522L26.5392 24.0097L26.878 21.6722L27.2167 24.0097L31.4448 38.8975H35.9274L44.6204 8.51901L44.8339 7.76779C40.1887 3.09852 33.7439 0.202911 26.6214 0.202911C12.4607 0.202911 0.98291 11.641 0.98291 25.7502C0.98291 39.8595 12.4627 51.2975 26.6214 51.2975C34.9404 51.2975 42.3331 47.3502 47.0175 41.2351L43.8117 37.9727Z" fill="#EC671B"/>
</svg>
