<svg width="18" height="16" viewBox="0 0 18 16" fill="none" xmlns="http://www.w3.org/2000/svg">
<path d="M1.88458 13.4288V14.9327C1.88458 15.0934 1.83021 15.2281 1.72148 15.3369C1.61276 15.4456 1.47803 15.5 1.3173 15.5H1.0673C0.906566 15.5 0.771833 15.4456 0.6631 15.3369C0.554366 15.2281 0.5 15.0934 0.5 14.9327V7.18845L2.5577 1.0673C2.6218 0.891666 2.72949 0.753208 2.88077 0.651925C3.03206 0.550642 3.20257 0.5 3.3923 0.5H14.6461C14.833 0.5 14.9966 0.549925 15.1368 0.649775C15.277 0.749608 15.3788 0.888783 15.4423 1.0673L17.5 7.18845V14.9327C17.5 15.0934 17.4456 15.2281 17.3369 15.3369C17.2281 15.4456 17.0934 15.5 16.9327 15.5H16.6673C16.5065 15.5 16.3718 15.4456 16.2631 15.3369C16.1543 15.2281 16.1 15.0934 16.1 14.9327V13.4288H1.88458ZM2.07498 6.05385H15.925L14.425 1.6346H3.57498L2.07498 6.05385ZM4.20235 10.9577C4.54435 10.9577 4.83009 10.8401 5.05958 10.6049C5.28908 10.3698 5.40383 10.0863 5.40383 9.75445C5.40383 9.40873 5.28624 9.11739 5.05108 8.88043C4.81591 8.64346 4.53345 8.52498 4.2037 8.52498C3.86007 8.52498 3.56873 8.64364 3.3297 8.88098C3.09067 9.11831 2.97115 9.40901 2.97115 9.75308C2.97115 10.0972 3.09085 10.3839 3.33025 10.6134C3.56965 10.8429 3.86035 10.9577 4.20235 10.9577ZM13.8184 10.9577C14.1602 10.9577 14.4499 10.8401 14.6876 10.6049C14.9253 10.3698 15.0442 10.0863 15.0442 9.75445C15.0442 9.40873 14.9252 9.11739 14.6871 8.88043C14.449 8.64346 14.1599 8.52498 13.8198 8.52498C13.4797 8.52498 13.1933 8.64364 12.9606 8.88098C12.7279 9.11831 12.6115 9.40901 12.6115 9.75308C12.6115 10.0972 12.7307 10.3839 12.9691 10.6134C13.2074 10.8429 13.4906 10.9577 13.8184 10.9577Z" fill="#90A3BF"/>
</svg>
