<svg width="303" height="307" viewBox="0 0 303 307" fill="none" xmlns="http://www.w3.org/2000/svg">
<path d="M305.995 302.934C297.335 294.397 289.553 286.717 281.762 279.047C274.731 272.125 267.749 265.154 260.638 258.313C253.461 251.408 246.719 244.087 239.422 237.287C234.226 232.444 229.733 226.876 224.735 221.815C217.807 214.795 210.703 207.945 203.67 201.025C196.792 194.259 189.995 187.412 183.008 180.758C175.916 174.002 168.861 167.154 162.332 159.936C159.027 156.282 156.034 155.525 151.719 155.533C106.154 155.608 60.5904 155.58 15.0255 155.58H8.04974C8.79889 156.669 9.09068 157.259 9.53019 157.71C20.2267 168.656 30.9018 179.62 41.6543 190.514C67.8056 217.003 95.3336 242.154 120.734 269.384C130.29 279.628 140.778 289.026 150.591 299.047C153.459 301.975 156.351 303.032 160.443 303.021C206.67 302.884 252.898 302.934 299.127 302.934L305.995 302.934ZM8.06998 4.40801C23.5259 20.1948 38.1885 35.428 53.1418 50.3805C70.5128 67.7503 88.0958 84.9165 105.685 102.073C109.4 105.696 112.351 109.925 116.608 113.194C121.16 116.689 124.494 121.678 128.58 125.805C135.832 133.131 143.377 140.178 150.53 147.592C153.349 150.514 156.225 151.651 160.362 151.637C206.615 151.486 252.87 151.542 299.124 151.542H305.503C280.507 126.373 256.232 101.757 231.759 77.3321C207.269 52.8915 182.584 28.6405 158.087 4.40801H8.06998ZM148.085 151.542C141.594 145.193 136.225 140.033 130.957 134.776C104.584 108.464 78.2139 82.1482 51.9043 55.7757C47.6464 51.5084 44.0006 46.6164 39.5177 42.6111C33.1648 36.9374 27.7444 30.4108 21.513 24.6376C15.3971 18.9709 9.5528 13.0163 3.67036 7.1121C2.06011 5.4951 -0.396952 4.25946 0.0544447 1.22314C2.15182 -0.674813 4.71017 0.203966 6.99455 0.198104C35.5468 0.126765 64.0991 0.151327 92.6515 0.151327C113.68 0.151327 134.708 0.227384 155.734 0.0810535C159.536 0.0553469 162.333 1.02774 165.054 3.75869C192.727 31.5574 220.998 58.7992 248.132 87.094C267.704 107.501 288.34 126.835 308.095 147.035C310.015 148.998 311.653 151.228 314 154.026C311.698 154.735 310.363 155.332 308.97 155.526C307.452 155.739 305.878 155.579 304.329 155.579C260.283 155.58 216.235 155.58 172.189 155.58H164.534C169.072 159.747 172.998 163.155 176.679 166.8C179.145 169.241 181.101 172.178 183.566 174.62C198.84 189.749 214.238 204.758 229.496 219.906C234.085 224.461 237.818 230.016 242.916 233.869C249.148 238.578 253.077 245.183 258.906 250.162C264.57 255.002 269.614 260.543 274.932 265.773C285.569 276.234 296.162 286.74 306.88 297.121C309.569 299.726 311.547 302.688 313.896 306.314C311.701 306.585 310.25 306.919 308.795 306.92C257.888 306.947 206.98 306.92 156.071 307C153.154 307.005 151.094 306.113 149.115 304.09C139.163 293.916 129.156 283.794 119.061 273.758C115.089 269.809 110.481 266.438 106.773 262.278C89.2702 242.639 69.5362 225.161 51.0861 206.443C46.2493 201.537 41.409 196.631 36.4568 191.827C24.736 180.452 13.4915 168.604 2.06491 156.937C0.832203 155.68 0.863174 155.65 0.116416 151.761C8.313 151.308 16.4322 151.606 24.5359 151.554C32.7253 151.5 40.916 151.542 49.1054 151.542H148.085Z" fill="#FDB649"/>
</svg>
