<svg width="1440" height="358" viewBox="0 0 1440 358" fill="none" xmlns="http://www.w3.org/2000/svg">
<g opacity="0.55">
<path d="M39.3045 349.442L-76 7.84459H-2.23376L77.9781 266.004L162.487 7.84459H224.078L308.587 263.865L388.083 7.84459H461.849L346.544 349.442H270.63L199.012 140.49L193.283 107.685L187.553 140.49L116.652 349.442H39.3045Z" fill="white"/>
<path d="M674.817 358C650.944 358 628.504 353.483 607.496 344.45C586.965 334.942 568.822 322.105 553.066 305.94C537.788 289.776 525.613 270.758 516.541 248.888C507.47 227.019 502.934 203.722 502.934 179C502.934 154.278 507.47 130.981 516.541 109.112C525.613 87.2417 537.788 68.2244 553.066 52.0597C568.822 35.8951 586.965 23.2961 607.496 14.2629C628.504 4.75431 650.944 0 674.817 0C702.509 0 728.052 6.18058 751.447 18.5418C774.843 30.903 794.418 47.7808 810.174 69.1753L761.474 106.972C751.925 93.1846 739.75 82.4874 724.949 74.8805C710.625 66.7981 695.108 62.757 678.397 62.757C664.074 62.757 650.466 65.8473 637.575 72.0279C624.684 77.733 613.464 85.8154 603.915 96.2749C594.366 106.734 586.727 119.096 580.997 133.359C575.745 147.622 573.119 162.835 573.119 179C573.119 195.165 575.745 210.378 580.997 224.641C586.727 238.904 594.366 251.503 603.915 262.438C613.464 272.898 624.684 281.218 637.575 287.398C650.466 293.579 664.074 296.669 678.397 296.669C697.018 296.669 713.968 291.677 729.246 281.693C744.524 271.709 756.938 258.397 766.487 241.757L813.755 283.12C798.476 305.94 778.662 324.244 754.312 338.032C729.962 351.344 703.464 358 674.817 358Z" fill="white"/>
<path d="M1213.25 7.84459V349.442H1154.52L1143.78 310.219C1131.84 325.908 1116.56 337.794 1097.94 345.876C1079.32 353.959 1060.46 358 1041.36 358C1017.49 358 995.052 353.483 974.044 344.45C953.514 334.942 935.371 322.105 919.615 305.94C904.336 289.776 892.161 270.758 883.09 248.888C874.018 227.019 869.482 203.722 869.482 179C869.482 154.278 874.018 130.981 883.09 109.112C892.161 87.2417 904.336 68.2244 919.615 52.0597C935.371 35.8951 953.514 23.2961 974.044 14.2629C995.052 4.75431 1017.49 0 1041.36 0C1060.46 0 1078.84 3.80344 1096.51 11.4103C1114.18 18.5418 1129.93 29.9522 1143.78 45.6414L1154.52 7.84459H1213.25ZM1041.36 296.669C1055.21 296.669 1068.34 293.579 1080.75 287.398C1093.17 281.218 1103.91 272.898 1112.98 262.438C1122.05 251.503 1129.22 238.904 1134.47 224.641C1139.72 210.378 1142.35 195.165 1142.35 179C1142.35 162.835 1139.72 147.622 1134.47 133.359C1129.22 119.096 1122.05 106.734 1112.98 96.2749C1103.91 85.34 1093.17 76.7822 1080.75 70.6016C1068.34 64.421 1055.21 61.3307 1041.36 61.3307C1027.52 61.3307 1014.39 64.421 1001.98 70.6016C989.561 76.7822 978.819 85.34 969.747 96.2749C960.676 106.734 953.514 119.096 948.262 133.359C943.01 147.622 940.384 162.835 940.384 179C940.384 195.165 943.01 210.378 948.262 224.641C953.514 238.904 960.676 251.503 969.747 262.438C978.819 272.898 989.561 281.218 1001.98 287.398C1014.39 293.579 1027.52 296.669 1041.36 296.669Z" fill="white"/>
<path d="M1498.1 71.3147C1494.75 69.8885 1491.41 68.4622 1488.07 67.0358C1485.2 66.085 1481.86 65.1341 1478.04 64.1833C1474.22 63.2324 1470.16 62.757 1465.87 62.757C1452.02 62.757 1439.13 65.1341 1427.19 69.8884C1415.26 74.1673 1404.99 80.1102 1396.4 87.7171C1387.8 95.324 1380.88 104.357 1375.63 114.817C1370.85 124.801 1368.47 135.498 1368.47 146.908L1367.75 349.442H1298.28V7.84459H1353.43L1367.75 45.6414C1377.3 31.8539 1389.71 20.919 1404.99 12.8366C1420.75 4.27888 1440.32 0 1463.72 0C1479 0 1496.42 2.13943 1516 6.4183L1498.1 71.3147Z" fill="white"/>
</g>
</svg>
