<svg width="121" height="48" viewBox="0 0 121 48" fill="none" xmlns="http://www.w3.org/2000/svg">
<path d="M119.76 18.9499C119.633 18.9076 119.487 18.8652 119.321 18.8229C119.154 18.7805 118.974 18.7594 118.786 18.7594C118.176 18.7594 117.61 18.8582 117.085 19.0558C116.561 19.2534 116.107 19.5215 115.732 19.8568C115.353 20.192 115.055 20.5837 114.835 21.0318C114.616 21.4835 114.506 21.9563 114.506 22.4609L114.474 31.3706H111.42V16.3458H113.847L114.477 18.0078C114.896 17.4009 115.448 16.9139 116.132 16.5505C116.816 16.1835 117.67 16 118.701 16C119.374 16 120.139 16.0953 121 16.2823L120.214 19.1369C120.054 19.0769 119.909 19.0134 119.76 18.9499Z" fill="black"/>
<path d="M107.983 16.3496V31.3744H105.4L104.929 29.6489C104.405 30.3405 103.731 30.8628 102.913 31.2191C102.095 31.5755 101.266 31.752 100.426 31.752C99.3771 31.752 98.3957 31.5473 97.4816 31.1415C96.5675 30.7322 95.7703 30.1747 95.0865 29.4619C94.4027 28.7491 93.8642 27.9128 93.4638 26.9531C93.0635 25.9898 92.8651 24.9664 92.8651 23.8796C92.8651 22.7928 93.0635 21.766 93.4638 20.8062C93.8642 19.8429 94.4027 19.0066 95.0865 18.2974C95.7703 17.5881 96.5675 17.0271 97.4816 16.6178C98.3957 16.2085 99.3771 16.0073 100.426 16.0073C101.266 16.0073 102.073 16.1696 102.853 16.4943C103.629 16.8189 104.323 17.327 104.933 18.0151L105.404 16.3531H107.983V16.3496ZM100.422 29.0526C101.032 29.0526 101.609 28.915 102.155 28.6433C102.7 28.3716 103.172 28.0011 103.572 27.5282C103.972 27.0589 104.284 26.5085 104.518 25.8804C104.748 25.2523 104.865 24.5854 104.865 23.8726C104.865 23.1633 104.748 22.4929 104.518 21.8648C104.288 21.2367 103.972 20.6898 103.572 20.217C103.172 19.7477 102.7 19.3736 102.155 19.1019C101.609 18.8302 101.032 18.6926 100.422 18.6926C99.8129 18.6926 99.2354 18.8302 98.6898 19.1019C98.1441 19.3736 97.6694 19.7441 97.2726 20.217C96.8722 20.6863 96.5569 21.2367 96.3266 21.8648C96.0963 22.4929 95.9794 23.1633 95.9794 23.8726C95.9794 24.5854 96.0963 25.2523 96.3266 25.8804C96.5569 26.5085 96.8722 27.0554 97.2726 27.5282C97.6729 27.9975 98.1441 28.3716 98.6898 28.6433C99.2354 28.9185 99.8129 29.0526 100.422 29.0526Z" fill="black"/>
<path d="M84.5816 31.752C83.5328 31.752 82.5514 31.5473 81.6373 31.1415C80.7232 30.7322 79.9296 30.1747 79.2529 29.4619C78.5762 28.7491 78.0412 27.9128 77.6479 26.9531C77.2546 25.9898 77.0562 24.9664 77.0562 23.8796C77.0562 22.7928 77.2546 21.766 77.6479 20.8062C78.0412 19.8429 78.5762 19.0066 79.2529 18.2974C79.9296 17.5881 80.7232 17.0271 81.6373 16.6178C82.5514 16.2085 83.5328 16.0073 84.5816 16.0073C85.8004 16.0073 86.9235 16.279 87.951 16.8224C88.9785 17.3658 89.8394 18.1069 90.5338 19.049L88.3939 20.711C87.9722 20.104 87.4443 19.6277 86.803 19.2854C86.1618 18.9396 85.4744 18.7667 84.741 18.7667C84.1104 18.7667 83.5116 18.8973 82.9447 19.1584C82.3778 19.4195 81.8853 19.7794 81.4637 20.2416C81.0421 20.7004 80.7126 21.2438 80.4717 21.8719C80.2308 22.5 80.1103 23.1704 80.1103 23.8796C80.1103 24.5924 80.2308 25.2593 80.4717 25.8874C80.7126 26.5155 81.0421 27.0624 81.4637 27.5353C81.8818 28.0046 82.3778 28.3786 82.9447 28.6503C83.5116 28.922 84.1104 29.0596 84.741 29.0596C85.5594 29.0596 86.3035 28.8409 86.9767 28.3998C87.6498 27.9622 88.1954 27.3765 88.6135 26.6425L90.6933 28.4633C90.0201 29.469 89.1485 30.2664 88.0785 30.8627C87.005 31.452 85.8393 31.752 84.5816 31.752Z" fill="black"/>
<path d="M56.9881 31.3739L51.9181 16.3491H55.1599L58.6888 27.7042L62.4054 16.3491H65.1158L68.8324 27.6089L72.3294 16.3491H75.5713L70.5012 31.3739H67.1637L64.0139 22.1819L63.7588 20.7387L63.5073 22.1819L60.3894 31.3739H56.9881Z" fill="black"/>
<path d="M40.2523 35.4822C36.6523 40.4974 30.7589 43.7657 24.098 43.7657C13.1377 43.7657 4.25346 34.9176 4.25346 24.0018C4.25346 13.0861 13.1377 4.23799 24.098 4.23799C28.876 4.23799 33.2583 5.92072 36.6835 8.72344L30.7368 30.6246L26.0471 13.4875H22.6293L17.9396 30.7676L13.4892 13.4875H9.39589L15.7917 36.351H20.0838L24.0189 22.3649L24.3373 20.1689L24.6557 22.3649L28.6294 36.351H32.8424L41.0125 7.81242L41.2131 7.1067C36.8473 2.72023 30.7902 0 24.0962 0C10.7873 0 0 10.7453 0 24C0 37.2547 10.7892 48 24.0962 48C31.9147 48 38.8627 44.2918 43.2653 38.547L40.2523 35.4822Z" fill="#EC671B"/>
</svg>
