<svg width="47" height="64" viewBox="0 0 47 64" fill="none" xmlns="http://www.w3.org/2000/svg">
<g clip-path="url(#clip0_63_1046)">
<path d="M43.381 38.2946C39.5505 43.6332 33.2799 47.1122 26.1927 47.1122C14.5308 47.1122 5.07795 37.6936 5.07795 26.0741C5.07795 14.4546 14.5308 5.03609 26.1927 5.03609C31.2765 5.03609 35.9393 6.82731 39.5838 9.81072L33.2564 33.1239L28.2666 14.8819H24.63L19.6401 33.2761L14.9049 14.8819H10.5495L17.3547 39.2195H21.9216L26.1085 24.3317L26.4473 21.9941L26.7861 24.3317L31.0141 39.2195H35.4967L44.1898 8.84097L44.4032 8.08975C39.7581 3.42048 33.3132 0.524872 26.1907 0.524872C12.03 0.524872 0.552246 11.9629 0.552246 26.0722C0.552246 40.1815 12.032 51.6195 26.1907 51.6195C34.5097 51.6195 41.9025 47.6722 46.5868 41.5571L43.381 38.2946Z" fill="#EC671B"/>
<path d="M7.28284 63.3795L4.48047 55.0712H6.27234L8.22284 61.3503L10.2771 55.0712H11.7753L13.8296 61.2976L15.7624 55.0712H17.5543L14.7519 63.3795H12.9072L11.1662 58.2966L11.0252 57.4985L10.8862 58.2966L9.16284 63.3795H7.28284Z" fill="black"/>
<path d="M22.5345 63.5883C21.9548 63.5883 21.4124 63.4751 20.9071 63.2507C20.4019 63.0244 19.9632 62.7161 19.5892 62.322C19.2151 61.9278 18.9194 61.4654 18.702 60.9346C18.4847 60.402 18.375 59.8361 18.375 59.2351C18.375 58.6342 18.4847 58.0663 18.702 57.5356C18.9194 57.0029 19.2151 56.5405 19.5892 56.1483C19.9632 55.7561 20.4019 55.4459 20.9071 55.2195C21.4124 54.9932 21.9548 54.882 22.5345 54.882C23.2082 54.882 23.829 55.0322 24.3969 55.3327C24.9648 55.6332 25.4407 56.0429 25.8245 56.5639L24.6417 57.4829C24.4086 57.1473 24.1168 56.8839 23.7624 56.6946C23.4079 56.5034 23.028 56.4078 22.6226 56.4078C22.274 56.4078 21.9431 56.48 21.6297 56.6244C21.3164 56.7688 21.0442 56.9678 20.8112 57.2234C20.5781 57.4771 20.396 57.7776 20.2628 58.1249C20.1297 58.4722 20.0631 58.8429 20.0631 59.2351C20.0631 59.6293 20.1297 59.9981 20.2628 60.3454C20.396 60.6927 20.5781 60.9951 20.8112 61.2566C21.0423 61.5161 21.3164 61.7229 21.6297 61.8732C21.9431 62.0234 22.274 62.0995 22.6226 62.0995C23.075 62.0995 23.4862 61.9785 23.8583 61.7346C24.2304 61.4927 24.532 61.1688 24.7631 60.7629L25.9126 61.7698C25.5405 62.3259 25.0588 62.7668 24.4674 63.0966C23.874 63.4224 23.2297 63.5883 22.5345 63.5883Z" fill="black"/>
<path d="M35.4695 55.0712V63.3795H34.0419L33.7814 62.4254C33.4916 62.8078 33.1195 63.0966 32.6671 63.2937C32.2147 63.4907 31.7565 63.5883 31.2924 63.5883C30.7127 63.5883 30.1702 63.4751 29.665 63.2507C29.1597 63.0244 28.7191 62.7161 28.3412 62.322C27.9632 61.9278 27.6655 61.4654 27.4442 60.9346C27.2229 60.402 27.1133 59.8361 27.1133 59.2351C27.1133 58.6342 27.2229 58.0663 27.4442 57.5356C27.6655 57.0029 27.9632 56.5405 28.3412 56.1483C28.7191 55.7561 29.1597 55.4459 29.665 55.2195C30.1702 54.9932 30.7127 54.882 31.2924 54.882C31.7565 54.882 32.203 54.9717 32.6338 55.1512C33.0627 55.3307 33.4465 55.6117 33.7834 55.9922L34.0438 55.0732H35.4695V55.0712ZM31.2904 62.0956C31.6272 62.0956 31.9464 62.0195 32.248 61.8693C32.5496 61.719 32.8101 61.5142 33.0314 61.2527C33.2527 60.9932 33.425 60.6888 33.5542 60.3415C33.6815 59.9942 33.7462 59.6254 33.7462 59.2312C33.7462 58.839 33.6815 58.4683 33.5542 58.121C33.4269 57.7737 33.2527 57.4712 33.0314 57.2098C32.8101 56.9503 32.5496 56.7434 32.248 56.5932C31.9464 56.4429 31.6272 56.3668 31.2904 56.3668C30.9536 56.3668 30.6344 56.4429 30.3328 56.5932C30.0312 56.7434 29.7688 56.9483 29.5494 57.2098C29.3282 57.4693 29.1539 57.7737 29.0266 58.121C28.8993 58.4683 28.8347 58.839 28.8347 59.2312C28.8347 59.6254 28.8993 59.9942 29.0266 60.3415C29.1539 60.6888 29.3282 60.9912 29.5494 61.2527C29.7707 61.5122 30.0312 61.719 30.3328 61.8693C30.6344 62.0215 30.9536 62.0956 31.2904 62.0956Z" fill="black"/>
<path d="M41.9791 56.5093C41.9086 56.4859 41.8283 56.4624 41.7362 56.439C41.6442 56.4156 41.5443 56.4039 41.4405 56.4039C41.1037 56.4039 40.7903 56.4585 40.5005 56.5678C40.2107 56.6771 39.96 56.8254 39.7524 57.0107C39.5429 57.1961 39.3784 57.4127 39.257 57.6605C39.1356 57.9102 39.0748 58.1717 39.0748 58.4507L39.0572 63.3776H37.3691V55.0693H38.7106L39.0592 55.9883C39.2903 55.6527 39.5958 55.3834 39.9737 55.1824C40.3517 54.9795 40.8236 54.8781 41.3935 54.8781C41.7656 54.8781 42.1886 54.9307 42.6645 55.0341L42.2297 56.6127C42.1416 56.5795 42.0613 56.5444 41.9791 56.5093Z" fill="black"/>
</g>
<defs>
<clipPath id="clip0_63_1046">
<rect width="47" height="64" fill="white"/>
</clipPath>
</defs>
</svg>
