<svg width="24" height="24" viewBox="0 0 24 24" fill="none" xmlns="http://www.w3.org/2000/svg">
<g id="car type/SUV">
<path id="Vector" d="M6.07421 14.3671C6.32224 13.3211 5.67539 12.2721 4.62944 12.0241C3.58349 11.7761 2.53451 12.4229 2.28649 13.4689C2.03847 14.5149 2.68531 15.5638 3.73126 15.8118C4.77722 16.0599 5.82619 15.413 6.07421 14.3671Z" fill="#90A3BF"/>
<path id="Vector_2" d="M21.014 15.2952C21.7741 14.5351 21.7741 13.3027 21.014 12.5426C20.2539 11.7825 19.0215 11.7825 18.2614 12.5426C17.5013 13.3027 17.5013 14.5351 18.2614 15.2952C19.0215 16.0553 20.2539 16.0553 21.014 15.2952Z" fill="#90A3BF"/>
<path id="Vector_3" d="M23.8706 12.1625C23.8275 12.0406 23.6531 11.5662 23.58 11.4087C23.5031 11.2512 23.4074 10.1073 23.3606 9.70045C23.3156 9.29354 21.4742 7.84782 21.4742 7.84782L21.8305 7.35654C21.2323 6.68712 12.8167 6.54274 10.786 7.06965C8.9446 7.54968 6.82946 9.16041 6.82946 9.16041L6.37568 9.45481C3.9024 9.47543 1.09533 10.1692 0.313404 10.7036C1.08596 10.6718 2.10415 10.6624 2.39479 10.6999C2.40042 10.6999 2.40604 10.6999 2.41167 10.6999C2.42292 10.6999 2.43042 10.7036 2.4398 10.7055C2.44543 10.7055 2.45105 10.7093 2.45668 10.7093C2.46793 10.713 2.47355 10.7149 2.47542 10.7186C2.54293 10.8236 1.91664 11.4274 1.67662 11.4949C1.52286 11.5381 0.626552 11.5737 0.0227619 11.5812C-0.0334919 12.3162 0.01151 13.8276 0.191522 14.1614C0.356533 14.4633 0.967825 14.4426 1.32972 14.4426L1.61099 14.4295C1.57724 14.2645 1.56037 14.0939 1.56037 13.9195C1.56037 12.4756 2.73419 11.3018 4.17804 11.3018C5.62188 11.3018 6.79571 12.4756 6.79571 13.9195C6.79571 14.0357 6.78446 14.1482 6.76946 14.2607H17.0395C17.0245 14.1482 17.0133 14.0339 17.0133 13.9195C17.0133 12.4756 18.1871 11.3018 19.6309 11.3018C21.0748 11.3018 22.2486 12.4756 22.2486 13.9195C22.2486 13.9626 22.2449 14.0039 22.243 14.047C23.0493 13.8989 23.2462 13.7882 23.3606 13.7507C23.5649 13.6832 24.0037 13.1751 24 13.0963C23.9962 13.0175 23.9118 12.2844 23.865 12.1625H23.8706ZM12.6423 9.44168C10.2759 9.51856 8.05767 9.56919 8.05767 9.56919C8.65584 8.9729 10.0097 8.17035 11.3748 7.7972C11.6223 7.72969 12.2842 7.67344 13.1018 7.63031L12.6423 9.44168ZM16.0982 9.30667C15.395 9.34042 14.5775 9.37418 13.7374 9.40418C13.7599 8.88664 13.7993 8.04471 13.8181 7.60031C14.615 7.57218 15.4757 7.55718 16.2107 7.55905C16.1938 7.89845 16.1395 8.70476 16.0982 9.3048V9.30667ZM17.1276 9.24854C17.0058 9.25604 16.8764 9.26542 16.7414 9.27292C16.8108 8.2641 16.8389 7.79532 16.8501 7.56843C17.3527 7.57968 17.7389 7.60218 17.919 7.63781C18.7178 7.79907 19.2447 8.03909 19.2447 8.03909L17.1295 9.25042L17.1276 9.24854Z" fill="#90A3BF"/>
</g>
</svg>
